# Blender v2.82 (sub 7) OBJ File: ''
# www.blender.org
mtllib BUILD_Bunker3.mtl
o bunker_2.003_Cube.2675
v 0.000000 -2.949039 -0.000000
v 0.000000 -2.947815 -3.963949
v -1.995176 7.092968 -7.997987
v 0.000031 0.781872 -3.971283
v 0.000214 7.092786 -4.004144
v -6.000000 -2.945957 -0.000547
v 0.000000 -2.946568 -8.000000
v 0.000183 6.320158 -4.002106
v -5.999817 6.318886 -3.981891
v -3.988397 7.092908 -3.982967
v -2.093302 -2.948380 -4.000000
v -2.106012 0.782107 -3.999879
v -6.000000 -2.946096 -8.000000
v -5.999786 7.092969 -3.972287
v -5.999969 0.783039 -3.955792
v -0.765202 -2.948624 -0.000183
v -5.248333 -2.948501 -0.000366
v -1.813417 7.092754 0.001787
v -2.060612 0.782336 -7.999878
v -5.248333 -2.948380 -4.000000
v -0.765202 -2.948380 -4.000000
v -5.999908 3.129731 -3.999146
v -5.999969 0.782206 -7.999878
v 0.000031 0.781348 0.000122
v -5.999969 0.783854 -0.000425
v -0.765171 0.782107 -5.999878
v 0.000031 0.782404 -7.999878
v -5.248302 0.782107 -5.999878
v -0.765171 0.782107 -3.999879
v -0.765171 0.781864 -0.000061
v -5.248302 0.781986 -0.000244
v 0.000092 3.129365 0.000854
v -5.999908 3.129732 0.000307
v -5.999908 3.129731 -7.999146
v -0.765110 3.129731 -5.999146
v 0.000092 3.129731 -7.999146
v -5.248241 3.129731 -5.999146
v -5.248241 3.129731 -3.999146
v -0.765110 3.129731 -3.999146
v -0.765110 3.129488 0.000671
v -5.248241 3.129610 0.000488
v 0.000092 3.129731 -3.999146
v -5.999848 4.984382 -3.998598
v 0.000153 4.984016 0.001403
v -5.999847 4.984382 0.000856
v 0.000153 4.984382 -3.998598
v -5.999847 4.984381 -7.998597
v -0.765049 4.984381 -5.998597
v 0.000153 4.984381 -7.998597
v -5.248180 4.984381 -5.998597
v -5.248181 4.984382 -3.998598
v -0.765049 4.984382 -3.998598
v -0.765049 4.984138 0.001220
v -5.248180 4.984261 0.001037
v -5.999817 6.322231 -7.998169
v 0.000183 6.317481 0.001830
v -5.999817 6.315567 0.001282
v -4.022233 0.782107 -3.999879
v -2.047275 0.782107 -5.999878
v -0.765019 6.317813 0.001647
v -5.248150 6.317935 0.001464
v 0.000183 6.322830 -7.998168
v -4.070778 -2.946248 -8.000000
v -4.060205 0.782270 -7.999878
v -3.976769 6.317901 0.001516
v -2.040176 6.318056 -5.998170
v -1.824458 6.317842 0.001604
v -3.986541 6.318056 -5.998170
v -6.000000 -2.946026 -3.944397
v -4.046863 7.092968 -7.997987
v -4.037034 6.322427 -7.998169
v -3.930372 7.092812 0.001701
v -1.904202 7.092844 -3.994033
v -2.078311 -2.946405 -8.000000
v -1.994468 6.322631 -7.998168
v -5.248302 0.782107 -3.999879
v -1.993310 3.129731 -5.999146
v -4.020017 3.129731 -5.999146
v -1.993310 3.129730 -7.999146
v -4.020017 3.129730 -7.999146
v -1.993227 4.984381 -5.998597
v -4.019934 4.984381 -5.998597
v -1.993227 4.984381 -7.998597
v -4.019934 4.984381 -7.998597
v -0.765018 6.318056 -5.998170
v -5.248150 6.318056 -5.998170
v -5.999786 7.092970 0.001466
v 0.000214 7.092604 0.002013
v -5.999786 7.092968 -7.997987
v 0.000214 7.092968 -7.997987
v -0.764988 7.092726 0.001830
v -5.248119 7.092848 0.001647
v -3.953073 0.782107 -5.999878
v -4.023202 -2.948380 -4.000000
v -5.999969 0.783447 -1.978108
v -5.999817 6.317226 -1.990305
v -5.999847 4.984382 -1.998871
v -5.999908 3.129732 -1.999420
v -6.000000 -2.945991 -1.972472
v -5.999786 7.092969 -1.985411
v -1.858809 7.092799 -1.996123
v -3.959384 7.092860 -1.990633
v 0.000031 0.781610 -1.985580
v 0.000000 -2.948427 -1.981974
v 0.000092 3.129548 -1.999146
v 0.000183 6.318820 -2.000138
v 0.000214 7.092695 -2.001065
v 0.000153 4.984199 -1.998597
v -0.765202 -2.948502 -2.000092
v -0.765171 0.781985 -1.999970
v -0.765110 3.129610 -1.999238
v -0.765049 4.984260 -1.998689
v -5.248302 0.782046 -2.000061
v -5.248333 -2.948441 -2.000183
v -5.248241 3.129671 -1.999329
v -5.248180 4.984321 -1.998780
v -5.248150 6.317997 -2.171677
v -1.932317 6.317949 -2.171607
v -3.981655 6.317979 -2.171652
v -0.765019 6.317935 -2.171586
v -5.248150 6.318026 -4.084924
v -1.986247 6.318003 -4.084889
v -3.984098 6.318018 -4.084911
v -0.765018 6.317997 -4.084878
vt 0.858690 0.109605
vt 0.847549 0.109639
vt 0.847547 0.014330
vt 0.858685 0.014331
vt 0.858695 0.207168
vt 0.878046 0.206351
vt 0.878048 0.300921
vt 0.858700 0.300920
vt 0.673321 0.138040
vt 0.619376 0.138253
vt 0.619371 0.023269
vt 0.673321 0.023272
vt 0.284549 0.256274
vt 0.193702 0.255656
vt 0.196342 0.023162
vt 0.284549 0.023162
vt 0.262401 0.581518
vt 0.152890 0.584324
vt 0.152890 0.520279
vt 0.262401 0.520279
vt 0.336054 0.930624
vt 0.302102 0.927426
vt 0.302102 0.836396
vt 0.336054 0.833819
vt 0.904868 0.206354
vt 0.904866 0.109549
vt 0.938815 0.112762
vt 0.938818 0.208273
vt 0.801224 0.637059
vt 0.745751 0.637059
vt 0.745751 0.521247
vt 0.835785 0.521247
vt 0.741778 0.137796
vt 0.775711 0.139030
vt 0.775711 0.254826
vt 0.741773 0.252315
vt 0.833028 0.138219
vt 0.833028 0.253270
vt 0.821833 0.253827
vt 0.821809 0.138502
vt 0.844758 0.697434
vt 0.900234 0.697434
vt 0.934184 0.813246
vt 0.844759 0.813246
vt 0.362876 0.930620
vt 0.362876 0.833815
vt 0.382164 0.836057
vt 0.382164 0.929025
vt 0.558598 0.139012
vt 0.539296 0.139103
vt 0.539307 0.023177
vt 0.558592 0.023200
vt 0.207360 0.872515
vt 0.151885 0.872515
vt 0.151885 0.756703
vt 0.241310 0.756703
vt 0.992740 0.113606
vt 0.938811 0.014336
vt 0.992740 0.014336
vt 0.448211 0.451439
vt 0.502162 0.451392
vt 0.502162 0.543574
vt 0.448211 0.542967
vt 0.900262 0.442648
vt 0.934824 0.558460
vt 0.844789 0.558460
vt 0.844789 0.442648
vt 0.585426 0.254854
vt 0.619381 0.253237
vt 0.619392 0.486517
vt 0.585444 0.486477
vt 0.528104 0.139158
vt 0.528097 0.023168
vt 0.539286 0.255029
vt 0.558604 0.254824
vt 0.558622 0.486448
vt 0.539265 0.486424
vt 0.833028 0.486382
vt 0.821881 0.486393
vt 0.619366 0.774056
vt 0.673317 0.774056
vt 0.673321 0.810606
vt 0.619372 0.810606
vt 0.103675 0.023162
vt 0.099566 0.255015
vt 0.013550 0.254429
vt 0.013550 0.023162
vt 0.302102 0.775157
vt 0.336054 0.775154
vt 0.502162 0.607010
vt 0.448211 0.607012
vt 0.262401 0.672549
vt 0.152890 0.675852
vt 0.438813 0.631156
vt 0.438813 0.746962
vt 0.384862 0.746968
vt 0.384862 0.631162
vt 0.802533 0.254794
vt 0.802533 0.486418
vt 0.741761 0.486492
vt 0.687841 0.486499
vt 0.687842 0.251656
vt 0.585418 0.524018
vt 0.619345 0.524016
vt 0.619371 0.559920
vt 0.585419 0.559921
vt 0.052812 0.874418
vt 0.052811 0.758606
vt 0.086762 0.758648
vt 0.086763 0.874460
vt 0.673321 0.252808
vt 0.673321 0.486519
vt 0.539307 0.620652
vt 0.528100 0.622867
vt 0.528102 0.559925
vt 0.539309 0.559924
vt 0.673286 0.524017
vt 0.673321 0.559920
vt 0.455553 0.128162
vt 0.453117 0.017371
vt 0.510711 0.017371
vt 0.510711 0.128162
vt 0.992740 0.208776
vt 0.558596 0.524020
vt 0.558596 0.559923
vt 0.802533 0.138998
vt 0.775711 0.023234
vt 0.802533 0.023202
vt 0.350910 0.631204
vt 0.350910 0.747010
vt 0.585420 0.139042
vt 0.052811 0.642805
vt 0.052811 0.527004
vt 0.086762 0.527046
vt 0.086762 0.642847
vt 0.350912 0.399585
vt 0.384864 0.399543
vt 0.384862 0.515355
vt 0.350910 0.515397
vt 0.585414 0.774058
vt 0.585415 0.810607
vt 0.006701 0.526948
vt 0.025988 0.526972
vt 0.025988 0.642774
vt 0.006701 0.652785
vt 0.878044 0.109545
vt 0.539304 0.774060
vt 0.558592 0.774060
vt 0.558592 0.810609
vt 0.539307 0.810610
vt 0.302102 0.989293
vt 0.336054 0.989290
vt 0.446854 0.739323
vt 0.446854 0.623511
vt 0.473677 0.623543
vt 0.473677 0.739355
vt 0.324088 0.631235
vt 0.324088 0.747042
vt 0.585414 0.023230
vt 0.296040 0.631176
vt 0.269218 0.631208
vt 0.269218 0.515396
vt 0.296040 0.515364
vt 0.269218 0.674699
vt 0.269218 0.638795
vt 0.296040 0.638798
vt 0.296040 0.674701
vt 0.904864 0.014334
vt 0.539344 0.524021
vt 0.304802 0.399641
vt 0.324089 0.399617
vt 0.324088 0.515428
vt 0.304801 0.510432
vt 0.878042 0.014332
vt 0.938821 0.300925
vt 0.904871 0.300923
vt 0.308224 0.128160
vt 0.308224 0.017371
vt 0.365206 0.017371
vt 0.365317 0.128160
vt 0.448211 0.392876
vt 0.502162 0.392874
vt 0.847551 0.207638
vt 0.262401 0.734415
vt 0.152890 0.734415
vt 0.992740 0.300925
vt 0.687843 0.137469
vt 0.687843 0.023283
vt 0.741784 0.023276
vt 0.539305 0.723456
vt 0.528098 0.723983
vt 0.775711 0.486450
vt 0.191081 0.486392
vt 0.192391 0.371024
vt 0.284549 0.371326
vt 0.284549 0.486378
vt 0.250599 0.486389
vt 0.382164 0.989286
vt 0.362876 0.989287
vt 0.140713 0.527053
vt 0.140713 0.642854
vt 0.362876 0.775151
vt 0.382164 0.775149
vt 0.503181 0.619549
vt 0.503181 0.656099
vt 0.476359 0.656096
vt 0.476359 0.619546
vt 0.097516 0.370706
vt 0.528097 0.774062
vt 0.528097 0.810611
vt 0.847554 0.300919
vt 0.528101 0.524022
vt 0.528127 0.486415
vt 0.528112 0.255148
vt 0.048111 0.486399
vt 0.013550 0.486410
vt 0.013550 0.370420
vt 0.095465 0.486397
vt 0.821785 0.023177
vt 0.833028 0.023167
vt 0.438813 0.515349
vt 0.140713 0.758655
vt 0.025988 0.758575
vt 0.365648 0.364789
vt 0.365427 0.238949
vt 0.457988 0.238952
vt 0.462860 0.364794
vt 0.308224 0.364786
vt 0.308224 0.238948
vt 0.510711 0.238953
vt 0.510711 0.364796
vt 0.006701 0.763574
vt 0.304800 0.621223
vt 0.304800 0.747066
vt 0.025989 0.874387
vt 0.006701 0.874362
vt 0.241310 0.988327
vt 0.207360 0.988327
vt 0.900234 0.581622
vt 0.934184 0.581622
vt 0.835785 0.752870
vt 0.801224 0.752870
vt 0.900263 0.326836
vt 0.934824 0.326836
vn 0.0000 0.0003 -1.0000
vn 0.0000 0.7072 -0.7070
vn 0.5774 0.5774 -0.5773
vn 0.7071 0.0002 -0.7071
vn -0.7070 0.0002 -0.7072
vn -0.7071 0.0002 -0.7071
vn 1.0000 -0.0000 -0.0000
vn 0.7071 -0.0001 0.7072
vn 0.7071 -0.0000 0.7071
vn -0.7071 0.7071 0.0000
vn 0.0000 1.0000 0.0000
vn -0.5773 0.5774 -0.5773
vn 0.0000 0.7071 0.7071
vn -0.9045 0.3015 0.3015
vn -0.7070 0.7072 -0.0000
vn 0.0000 -0.0003 1.0000
vn -0.0000 0.0002 -1.0000
vn 0.0000 -1.0000 0.0000
vn -1.0000 0.0000 -0.0000
vn -0.9045 0.3016 -0.3015
vn -0.0000 -0.7072 0.7070
vn 0.7070 -0.0002 0.7072
vn -0.0000 0.0000 -1.0000
vn 0.7071 0.0001 -0.7071
vn 0.7072 0.0000 -0.7070
vn 0.0000 -0.0000 1.0000
vn 0.9045 0.3016 -0.3015
vn 0.5773 0.5772 0.5775
vn 0.9046 -0.3014 -0.3015
vn 0.7070 0.0002 -0.7072
vn -0.0002 -0.0002 1.0000
vn -0.0002 -0.0000 1.0000
vn -0.7071 -0.0000 0.7071
vn -0.9487 0.0001 -0.3162
vn -0.7071 0.0001 -0.7071
vn -0.7071 0.0000 -0.7071
vn -0.0002 -0.0003 1.0000
vn -0.7072 -0.0001 0.7070
vn 0.7072 -0.0002 0.7070
vn 0.9045 0.3015 0.3015
vn 0.5773 0.5773 0.5774
vn -0.0000 -0.0002 1.0000
vn 0.0000 0.7070 0.7072
vn -0.0001 0.7069 0.7073
vn -0.7064 -0.0000 0.7078
vn -0.5774 -0.5774 0.5772
vn -0.7072 -0.0002 0.7070
vn 0.7070 -0.7072 -0.0000
vn 0.7071 -0.7071 -0.0000
vn 0.9487 0.0001 -0.3162
vn -0.7070 -0.0002 0.7072
vn -0.9046 -0.3014 -0.3015
vn -0.7072 0.0002 -0.7070
vn 0.5774 -0.5774 0.5772
vn -0.5774 0.5773 0.5773
vn 0.0001 1.0000 0.0000
vn -0.0000 -1.0000 -0.0001
usemtl Wall.018
s 1
f 75/1/1 3/2/2 90/3/3 62/4/4
f 71/5/1 84/6/1 47/7/5 55/8/6
f 104/9/7 103/10/7 24/11/8 1/12/9
f 14/13/10 10/14/11 70/15/2 89/16/12
f 59/17/11 12/18/13 29/19/14 26/20/15
f 78/21/16 93/22/16 59/23/16 77/24/16
f 80/25/1 79/26/1 19/27/17 64/28/17
f 48/29/18 81/30/18 83/31/18 49/32/18
f 95/33/19 98/34/19 22/35/20 15/36/19
f 100/37/10 14/38/10 9/39/19 96/40/19
f 82/41/18 50/42/18 47/43/18 84/44/18
f 82/45/16 81/46/16 66/47/21 68/48/21
f 108/49/7 106/50/7 56/51/22 44/52/22
f 37/53/11 78/54/11 80/55/11 34/56/11
f 74/57/23 19/27/17 27/58/24 7/59/25
f 58/60/13 94/61/26 11/62/26 12/63/13
f 35/64/11 36/65/3 79/66/11 77/67/11
f 42/68/27 4/69/7 27/70/24 36/71/3
f 106/50/7 107/72/7 88/73/28 56/51/22
f 8/74/7 46/75/29 49/76/30 62/77/4
f 9/39/19 14/38/10 89/78/12 55/79/6
f 30/80/31 16/81/32 1/82/9 24/83/8
f 3/84/2 73/85/11 5/86/11 90/87/3
f 77/24/16 59/23/16 26/88/16 35/89/16
f 12/63/13 11/62/26 21/90/33 29/91/14
f 93/92/11 58/93/13 12/18/13 59/17/11
f 109/94/19 16/95/19 30/96/19 110/97/19
f 43/98/34 9/39/19 55/79/6 47/99/5
f 23/100/35 13/101/36 69/102/19 15/36/19
f 33/103/37 25/104/38 31/105/31 41/106/37
f 37/107/39 38/108/27 76/109/40 28/110/41
f 27/70/24 4/69/7 2/111/7 7/112/25
f 65/113/42 72/114/43 92/115/44 61/116/37
f 25/104/38 6/117/45 17/118/32 31/105/31
f 122/119/18 66/120/21 85/121/46 124/122/18
f 63/123/23 64/28/17 19/27/17 74/57/23
f 45/124/47 33/103/37 41/106/37 54/125/37
f 97/126/19 98/34/19 33/127/19 45/128/47
f 111/129/19 110/97/19 30/96/19 40/130/19
f 103/10/7 4/69/7 42/68/27 105/131/7
f 115/132/7 41/133/7 31/134/7 113/135/7
f 35/136/19 26/137/15 29/138/14 39/139/34
f 40/140/37 30/80/31 24/83/8 32/141/37
f 61/142/48 54/143/7 116/144/7 117/145/49
f 83/146/1 84/6/1 71/5/1 75/1/1
f 60/147/37 53/148/37 44/149/22 56/150/22
f 28/151/41 93/22/16 78/21/16 37/152/39
f 96/40/19 9/39/19 43/98/34 97/126/19
f 77/153/7 79/154/7 83/155/7 81/156/7
f 112/157/19 111/129/19 40/130/19 53/158/19
f 108/49/7 44/52/22 32/159/7 105/131/7
f 116/144/7 54/143/7 41/133/7 115/132/7
f 53/148/37 40/140/37 32/141/37 44/149/22
f 84/160/19 80/161/19 78/162/19 82/163/19
f 43/164/34 51/165/50 38/166/27 22/167/20
f 19/27/17 79/26/1 36/168/3 27/58/24
f 57/169/47 45/124/47 54/125/37 61/116/37
f 85/170/46 48/171/51 52/172/52 124/173/19
f 84/6/1 83/146/1 79/26/1 80/25/1
f 70/15/2 10/14/11 73/85/11 3/84/2
f 82/45/16 78/21/16 77/24/16 81/46/16
f 75/1/1 62/4/4 49/174/30 83/146/1
f 64/28/17 23/175/35 34/176/53 80/25/1
f 121/177/49 86/178/54 68/179/21 123/180/18
f 76/181/40 20/182/9 94/61/26 58/60/13
f 71/5/1 70/183/2 3/2/2 75/1/1
f 28/184/41 76/185/40 58/93/13 93/92/11
f 23/175/35 64/28/17 63/123/23 13/186/36
f 95/33/19 99/187/19 6/188/45 25/189/38
f 67/190/42 18/191/43 72/114/43 65/113/42
f 15/36/19 22/35/20 34/192/53 23/100/35
f 72/193/43 102/194/11 100/195/10 87/196/55 92/197/44
f 123/180/18 68/179/21 66/120/21 122/119/18
f 68/48/21 86/198/54 50/199/22 82/45/16
f 113/135/7 31/134/7 17/200/7 114/201/7
f 66/47/21 81/46/16 48/202/51 85/203/46
f 42/204/27 39/205/34 52/206/52 46/207/29
f 101/208/11 73/85/11 10/14/11 102/194/11
f 91/209/43 60/147/37 56/150/22 88/210/28
f 91/209/43 18/191/43 67/190/42 60/147/37
f 89/211/12 70/183/2 71/5/1 55/8/6
f 87/212/55 57/169/47 61/116/37 92/115/44
f 90/213/3 5/214/7 8/74/7 62/77/4
f 91/215/43 88/216/28 107/217/56 101/208/11 18/218/43
f 15/36/19 69/102/19 99/187/19 95/33/19
f 57/219/47 96/40/19 97/126/19 45/128/47
f 43/98/34 22/35/20 98/34/19 97/126/19
f 87/220/55 100/37/10 96/40/19 57/219/47
f 25/189/38 33/127/19 98/34/19 95/33/19
f 18/218/43 101/208/11 102/194/11 72/193/43
f 46/75/29 108/49/7 105/131/7 42/68/27
f 24/11/8 103/10/7 105/131/7 32/159/7
f 8/74/7 5/214/7 107/72/7 106/50/7
f 46/75/29 8/74/7 106/50/7 108/49/7
f 2/111/7 4/69/7 103/10/7 104/9/7
f 52/172/52 39/139/34 111/129/19 112/157/19
f 101/208/11 107/217/56 5/86/11 73/85/11
f 100/195/10 102/194/11 10/14/11 14/13/10
f 39/139/34 29/138/14 110/97/19 111/129/19
f 21/221/33 109/94/19 110/97/19 29/138/14
f 76/109/40 113/135/7 114/201/7 20/222/9
f 51/223/50 116/144/7 115/132/7 38/108/27
f 38/108/27 115/132/7 113/135/7 76/109/40
f 65/224/18 119/225/18 118/226/18 67/227/18
f 61/228/48 117/229/49 119/225/18 65/224/18
f 67/227/18 118/226/18 120/230/18 60/231/57
f 119/225/18 123/180/18 122/119/18 118/226/18
f 117/145/49 116/144/7 51/223/50 121/232/49
f 120/233/19 112/157/19 53/158/19 60/234/19
f 117/229/49 121/177/49 123/180/18 119/225/18
f 118/226/18 122/119/18 124/122/18 120/230/18
f 124/173/19 52/172/52 112/157/19 120/233/19
f 121/232/49 51/223/50 50/235/22 86/236/54
f 34/56/11 22/237/20 38/238/27 37/53/11
f 47/43/18 50/42/18 51/239/18 43/240/18
f 49/32/18 46/241/29 52/242/52 48/29/18
f 36/65/3 35/64/11 39/243/11 42/244/27
