# Blender v2.82 (sub 7) OBJ File: 'Props layout.blend'
# www.blender.org
mtllib BUILD_Store.mtl
o Cube.020_Cube.028
v -2.738812 2.407558 1.326959
v 2.611715 -0.042549 -3.969234
v -2.738813 2.407559 -4.230671
v 2.882255 2.407557 1.326958
v 2.882254 2.407558 -4.230672
v -2.407249 -0.042549 -2.298206
v -2.407250 -0.042549 -3.969234
v -2.738812 2.407558 -0.615434
v 2.882254 2.407558 -0.615434
v 2.611715 -0.042549 -2.298207
v -2.738813 2.407559 -2.298206
v 2.882254 2.407558 -2.298207
v 2.611716 -0.042550 0.970521
v -2.407249 2.407559 -4.230672
v -2.407249 -0.042550 0.970522
v -2.407248 2.407558 1.326959
v -2.738812 -0.042550 0.970522
v -2.407249 2.407558 -0.615434
v 2.882254 -0.042550 0.970521
v -2.407249 2.407559 -2.298206
v 2.611715 2.407558 -4.230672
v 2.882253 -0.042549 -3.969234
v -2.738813 -0.042549 -3.969233
v 2.611716 2.407557 1.326958
v 2.611716 2.407558 -0.615434
v 2.611715 2.407558 -2.298207
v -2.738813 2.407559 -3.969233
v 2.882254 2.407558 -3.969234
v 2.611715 -0.042550 -0.615435
v 2.611716 -0.042550 1.326957
v -2.407249 2.407559 -3.969233
v 2.611715 -0.042549 -4.230673
v 2.611715 2.407558 -3.969234
v 2.882255 2.407557 0.970522
v -2.407249 -0.042549 -0.615434
v -2.738812 2.407558 0.970523
v -2.407248 2.407558 0.970523
v -2.407249 -0.042550 1.326958
v -2.407250 -0.042549 -4.230672
v 2.611716 2.407557 0.970522
v 2.882254 -0.042549 -2.298207
v -2.738813 -0.042549 -2.298206
v 2.882254 -0.042550 -0.615435
v -2.738812 -0.042549 -0.615434
v 2.882253 -0.042549 -4.230673
v 2.882254 -0.042550 1.326957
v -2.738813 -0.042549 -4.230672
v -2.738812 -0.042550 1.326958
v -2.407249 -0.042549 -2.149885
v -2.738813 -0.042549 -2.149885
v -2.407249 2.260263 -2.149885
v -2.738812 2.260264 -2.149885
v -2.407249 2.260263 -0.727437
v -2.738812 2.260264 -0.727437
v -2.407249 -0.042549 -0.727438
v -2.738813 -0.042549 -0.727437
v -2.738812 2.638559 1.326959
v -2.738813 2.638560 -4.230671
v 2.882255 2.638558 1.326958
v 2.882254 2.638560 -4.230672
v -2.738812 2.638559 -0.615433
v 2.882254 2.638559 -0.615434
v -2.738813 2.638560 -2.298206
v 2.882254 2.638559 -2.298207
v -2.407249 2.638560 -4.230672
v -2.407248 2.638559 1.326959
v -2.407249 2.638559 -0.615434
v -2.407249 2.638560 -2.298206
v 2.611715 2.638560 -4.230672
v 2.611716 2.638558 1.326958
v 2.611716 2.638559 -0.615434
v 2.611715 2.638559 -2.298207
v -2.738813 2.638560 -3.969233
v 2.882254 2.638560 -3.969234
v -2.407249 2.638560 -3.969233
v 2.611715 2.638560 -3.969234
v 2.882255 2.638559 0.970522
v -2.738812 2.638559 0.970523
v -2.407248 2.638559 0.970523
v 2.611716 2.638559 0.970522
v -2.738812 4.828235 1.326959
v -2.738813 4.828236 -4.230671
v 2.882255 4.828235 1.326958
v 2.882254 4.828236 -4.230672
v -2.738812 4.828235 -0.615433
v 2.882255 4.828235 -0.615434
v -2.738812 4.828236 -2.298205
v 2.882254 4.828235 -2.298206
v -2.407249 4.828236 -4.230671
v -2.407248 4.828235 1.326959
v -2.407248 4.828235 -0.615433
v -2.407249 4.828236 -2.298205
v 2.611715 4.828236 -4.230672
v 2.611716 4.828235 1.326958
v 2.611716 4.828235 -0.615434
v 2.611715 4.828235 -2.298206
v -2.738813 4.828236 -3.969232
v 2.882254 4.828236 -3.969233
v -2.407249 4.828236 -3.969233
v 2.611715 4.828236 -3.969233
v 2.882255 4.828235 0.970522
v -2.738812 4.828235 0.970523
v -2.407248 4.828235 0.970523
v 2.611716 4.828235 0.970522
v 2.611716 2.221130 -0.295263
v 2.611716 2.221130 -0.615434
v 2.882254 2.221130 -0.295263
v 2.882254 2.221130 -0.615434
v 2.882254 2.221130 -2.298207
v 2.611715 2.221130 -2.298207
v 2.611715 2.221130 -3.210029
v 2.882254 2.221130 -3.210029
v 2.611715 0.914097 -3.210029
v 2.882253 0.914097 -3.210029
v 2.611715 0.914097 -0.295263
v 2.611715 0.914097 -0.615435
v 2.882254 0.914097 -0.295263
v 2.882254 0.914097 -0.615435
v 2.882254 0.914097 -2.298207
v 2.611715 0.914097 -2.298207
v 0.978894 2.221130 -3.969234
v 0.978894 2.221130 -4.230672
v -1.935872 2.221130 -3.969233
v -1.935872 2.221130 -4.230672
v 0.978894 0.914097 -3.969234
v 0.978894 0.914097 -4.230672
v 0.978894 1.610465 -3.969234
v -1.935872 0.914097 -3.969233
v -1.935872 0.914097 -4.230672
vt 0.899396 0.443386
vt 0.889911 0.443386
vt 0.889911 0.767461
vt 0.899396 0.767461
vt 0.424623 0.414949
vt 0.525227 0.414949
vt 0.525227 0.288422
vt 0.485946 0.288422
vt 0.485946 0.313965
vt 0.432278 0.313965
vt 0.432278 0.288422
vt 0.424623 0.288422
vt 0.424623 0.020857
vt 0.525227 0.020857
vt 0.525227 0.000000
vt 0.424623 0.000000
vt 0.624623 0.028436
vt 0.725227 0.028436
vt 0.725227 0.000000
vt 0.624623 0.000000
vt 0.624623 0.154963
vt 0.725227 0.154963
vt 0.424623 0.154171
vt 0.432278 0.154171
vt 0.432278 0.081427
vt 0.485946 0.081427
vt 0.485946 0.154171
vt 0.525227 0.154171
vt 0.615138 0.028436
vt 0.615138 0.154963
vt 0.624623 0.443386
vt 0.725227 0.443386
vt 0.725227 0.422528
vt 0.624623 0.422528
vt 0.699396 0.788870
vt 0.800000 0.788870
vt 0.800000 0.464795
vt 0.760719 0.495232
vt 0.760719 0.683439
vt 0.707051 0.683439
vt 0.415138 0.000000
vt 0.415138 0.020857
vt 0.615138 0.289214
vt 0.624623 0.289214
vt 0.615138 0.422528
vt 0.725227 0.289214
vt 0.725227 0.277381
vt 0.630671 0.277381
vt 0.630671 0.163899
vt 0.725227 0.163899
vt 0.699396 0.443386
vt 0.689911 0.443386
vt 0.689911 0.464795
vt 0.699396 0.464795
vt 0.500604 0.443386
vt 0.400000 0.443386
vt 0.400000 0.464795
vt 0.500604 0.464795
vt 0.424623 0.443386
vt 0.525227 0.443386
vt 0.400000 0.788870
vt 0.500604 0.788870
vt 0.099396 0.837477
vt 0.200000 0.837477
vt 0.200000 0.704163
vt 0.160719 0.704163
vt 0.160719 0.776908
vt 0.107051 0.776908
vt 0.107051 0.704163
vt 0.099396 0.704163
vt 0.510089 0.464795
vt 0.510089 0.443386
vt 0.824623 0.324076
vt 0.925227 0.324076
vt 0.925227 0.000000
vt 0.824623 0.000000
vt 0.857353 0.105432
vt 0.885946 0.105432
vt 0.885946 0.293639
vt 0.832278 0.293639
vt 0.800000 0.443386
vt 0.500604 0.806339
vt 0.510089 0.806339
vt 0.510089 0.788870
vt 0.300604 0.443386
vt 0.200000 0.443386
vt 0.200000 0.569913
vt 0.300604 0.569913
vt 0.415138 0.414949
vt 0.415138 0.443386
vt 0.310089 0.569913
vt 0.310089 0.443386
vt 0.400000 0.806339
vt 0.699396 0.806339
vt 0.800000 0.806339
vt 0.815138 0.000000
vt 0.815138 0.324076
vt 0.615138 0.000000
vt 0.099396 0.569913
vt 0.107051 0.569913
vt 0.107051 0.544369
vt 0.160719 0.544369
vt 0.160719 0.569913
vt 0.200000 0.569913
vt 0.200000 0.443386
vt 0.099396 0.443386
vt 0.300604 0.704163
vt 0.200000 0.704163
vt 0.200000 0.837477
vt 0.300604 0.837477
vt 1.000000 0.767461
vt 1.000000 0.443386
vt 0.200000 0.578848
vt 0.294556 0.578848
vt 0.294556 0.692330
vt 0.200000 0.692330
vt 0.744411 0.437558
vt 0.725227 0.437558
vt 0.725227 0.324076
vt 0.744411 0.324076
vt 0.763595 0.429600
vt 0.782779 0.429600
vt 0.782779 0.324076
vt 0.763595 0.324076
vt 0.763595 0.324076
vt 0.744411 0.324076
vt 0.744411 0.429600
vt 0.763595 0.429600
vt 0.325227 0.000000
vt 0.325227 0.020857
vt 0.325227 0.154171
vt 0.415138 0.154171
vt 0.525227 0.000000
vt 0.525227 0.028436
vt 0.600000 0.464795
vt 0.600000 0.788870
vt 0.689911 0.788870
vt 0.600000 0.806339
vt 0.689911 0.806339
vt 0.525227 0.289214
vt 0.525227 0.422528
vt 0.525227 0.154963
vt 0.415138 0.288422
vt 0.325227 0.288422
vt 0.325227 0.414949
vt 0.400000 0.569913
vt 0.400000 0.443386
vt 0.089911 0.443386
vt 0.000000 0.443386
vt 0.000000 0.569913
vt 0.089911 0.569913
vt 0.310089 0.704163
vt 0.400000 0.704163
vt 0.310089 0.837477
vt 0.089911 0.704163
vt 0.089911 0.837477
vt 0.615138 0.443386
vt 0.015653 0.422528
vt 0.000000 0.422528
vt 0.000000 0.443386
vt 0.015653 0.443386
vt 0.015653 0.028436
vt 0.000000 0.028436
vt 0.000000 0.154963
vt 0.015653 0.154963
vt 0.000000 0.289214
vt 0.015653 0.289214
vt 0.325227 0.154963
vt 0.306043 0.154963
vt 0.306043 0.289214
vt 0.325227 0.289214
vt 0.325227 0.028436
vt 0.306043 0.028436
vt 0.325227 0.422528
vt 0.306043 0.422528
vt 0.306043 0.443386
vt 0.325227 0.443386
vt 0.306043 0.000000
vt 0.015653 0.000000
vt 0.325227 0.000000
vt 0.000000 0.000000
vt 0.525227 0.443386
vt 0.600000 0.806339
vt 0.600000 0.788870
vt 0.400000 0.837477
vt 0.325227 0.443386
vt 0.600000 0.443386
vt 0.000000 0.704163
vt 0.000000 0.837477
vt 0.600000 0.464795
vt 0.600000 0.443386
vt 0.800000 0.443386
vt 0.800000 0.767461
vt 0.725227 0.000000
vt 0.725227 0.324076
vt 0.815653 0.767461
vt 0.831306 0.767461
vt 0.831306 0.793004
vt 0.831306 0.927255
vt 0.831306 1.000000
vt 0.815653 1.000000
vt 0.815653 0.927255
vt 0.815653 0.793004
vt 0.453032 0.866233
vt 0.437379 0.866233
vt 0.437379 0.806339
vt 0.453032 0.806339
vt 0.468685 0.866233
vt 0.453032 0.866233
vt 0.453032 0.806339
vt 0.468685 0.806339
vt 0.815653 1.000000
vt 0.800000 1.000000
vt 0.800000 0.927255
vt 0.800000 0.793004
vt 0.800000 0.767461
vt 0.815653 0.767461
vt 0.815653 0.793004
vt 0.815653 0.927255
vt 0.418690 0.866233
vt 0.400000 0.866233
vt 0.400000 0.834322
vt 0.400000 0.806339
vt 0.418690 0.806339
vt 0.418690 0.806339
vt 0.437379 0.806339
vt 0.437379 0.866233
vt 0.418690 0.866233
vt 0.832278 0.105432
vt 0.831306 0.767461
vt 0.849996 0.767461
vt 0.849996 0.955668
vt 0.831306 0.955668
vt 0.707051 0.495232
vt 0.868685 0.955668
vt 0.849996 0.955668
vt 0.849996 0.767461
vt 0.868685 0.767461
vn -0.0000 0.0000 -1.0000
vn 1.0000 -0.0000 -0.0000
vn 0.7071 0.7071 -0.0000
vn 0.5774 0.5774 -0.5774
vn 0.5774 -0.5774 -0.5774
vn 0.7071 -0.7071 -0.0000
vn -1.0000 -0.0000 0.0000
vn 0.5774 -0.5774 0.5773
vn 0.5774 0.5773 0.5774
vn 0.3015 0.3015 -0.9045
vn -0.5774 0.5774 -0.5773
vn -0.3015 -0.3015 -0.9045
vn -0.5774 -0.5773 0.5773
vn -0.5774 -0.5774 -0.5773
vn 0.0000 -0.0000 1.0000
vn -0.7071 0.7071 0.0000
vn -0.5773 0.5774 0.5774
vn -0.5773 -0.5774 0.5774
vn -0.7071 -0.7071 0.0000
vn -0.7071 -0.0000 0.7071
vn -0.5774 0.5774 0.5774
vn 0.5774 0.5774 0.5774
vn 0.3015 -0.3015 0.9045
vn -0.5774 -0.5774 -0.5774
vn -0.5774 0.5774 -0.5774
vn 0.5773 -0.5774 -0.5774
vn 0.5773 -0.5774 0.5774
vn 0.0000 1.0000 0.0000
vn -0.5774 -0.5774 0.5773
usemtl Material.007
s 1
f 37/1/1 79/2/1 80/3/1 40/4/1
f 34/5/2 19/6/2 43/7/2 118/8/3 117/9/4 107/10/5 108/11/6 9/12/2
f 28/13/2 22/14/2 45/15/2 5/16/2
f 36/17/7 17/18/7 48/19/7 1/20/7
f 8/21/7 44/22/7 17/18/7 36/17/7
f 12/23/2 109/24/6 112/25/8 114/26/9 119/27/3 41/28/2 22/14/2 28/13/2
f 36/17/7 78/29/7 61/30/7 8/21/7
f 3/31/7 47/32/7 23/33/7 27/34/7
f 21/35/1 32/36/1 39/37/1 129/38/10 126/39/11 122/40/12
f 5/16/2 60/41/2 74/42/2 28/13/2
f 8/21/7 61/30/7 63/43/7 11/44/7
f 11/44/7 63/43/7 73/45/7 27/34/7
f 11/44/7 42/46/7 50/47/7 52/48/13 54/49/14 56/50/7 44/22/7 8/21/7
f 3/51/1 58/52/1 65/53/1 14/54/1
f 1/55/15 48/56/15 38/57/15 16/58/15
f 4/59/2 46/60/2 19/6/2 34/5/2
f 16/58/15 38/57/15 30/61/15 24/62/15
f 33/63/7 2/64/7 10/65/7 120/66/16 113/67/17 111/68/18 110/69/19 26/70/7
f 16/58/15 66/71/15 57/72/15 1/55/15
f 31/73/15 7/74/15 2/75/15 33/76/15 127/77/20 125/78/21 128/79/22 123/80/23
f 14/54/1 39/37/1 47/81/1 3/51/1
f 4/82/15 59/83/15 70/84/15 24/62/15
f 37/85/2 15/86/2 35/87/2 18/88/2
f 9/12/2 108/11/6 109/24/6 12/23/2
f 34/5/2 77/89/2 59/90/2 4/59/2
f 18/88/2 67/91/2 79/92/2 37/85/2
f 24/62/15 30/61/15 46/93/15 4/82/15
f 5/94/1 45/95/1 32/36/1 21/35/1
f 33/76/15 76/96/15 75/97/15 31/73/15
f 1/20/7 57/98/7 78/29/7 36/17/7
f 27/34/7 23/33/7 42/46/7 11/44/7
f 25/99/7 106/100/19 105/101/24 115/102/25 116/103/16 29/104/7 13/105/7 40/106/7
f 26/70/7 110/69/19 106/100/19 25/99/7
f 20/107/2 6/108/2 7/109/2 31/110/2
f 40/4/1 13/111/1 15/112/1 37/1/1
f 18/88/2 35/87/2 55/113/2 53/114/26 51/115/27 49/116/2 6/108/2 20/107/2
f 52/117/13 51/118/27 53/119/26 54/120/14
f 55/121/1 56/122/1 54/123/14 53/124/26
f 51/125/27 52/126/13 50/127/15 49/128/15
f 60/41/2 84/129/2 98/130/2 74/42/2
f 74/42/2 98/130/2 88/131/2 64/132/2
f 57/98/7 81/133/7 102/134/7 78/29/7
f 65/53/1 89/135/1 93/136/1 69/137/1
f 69/137/1 93/136/1 84/138/1 60/139/1
f 63/43/7 87/140/7 97/141/7 73/45/7
f 61/30/7 85/142/7 87/140/7 63/43/7
f 62/143/2 86/144/2 101/145/2 77/89/2
f 67/91/2 91/146/2 103/147/2 79/92/2
f 80/148/7 104/149/7 95/150/7 71/151/7
f 64/132/2 88/131/2 86/144/2 62/143/2
f 68/152/2 92/153/2 91/146/2 67/91/2
f 24/62/15 70/84/15 66/71/15 16/58/15
f 28/13/2 74/42/2 64/132/2 12/23/2
f 12/23/2 64/132/2 62/143/2 9/12/2
f 9/12/2 62/143/2 77/89/2 34/5/2
f 31/110/2 75/154/2 68/152/2 20/107/2
f 25/99/7 71/151/7 72/155/7 26/70/7
f 21/35/1 69/137/1 60/139/1 5/94/1
f 14/54/1 65/53/1 69/137/1 21/35/1
f 26/70/7 72/155/7 76/156/7 33/63/7
f 20/107/2 68/152/2 67/91/2 18/88/2
f 40/106/7 80/148/7 71/151/7 25/99/7
f 27/34/7 73/45/7 58/157/7 3/31/7
f 100/158/28 98/159/28 84/160/28 93/161/28
f 104/162/28 101/163/28 86/164/28 95/165/28
f 95/165/28 86/164/28 88/166/28 96/167/28
f 85/168/28 91/169/28 92/170/28 87/171/28
f 102/172/28 103/173/28 91/169/28 85/168/28
f 97/174/28 99/175/28 89/176/28 82/177/28
f 99/175/28 100/158/28 93/161/28 89/176/28
f 87/171/28 92/170/28 99/175/28 97/174/28
f 96/167/28 88/166/28 98/159/28 100/158/28
f 90/178/28 94/179/28 104/162/28 103/173/28
f 81/180/28 90/178/28 103/173/28 102/172/28
f 94/179/28 83/181/28 101/163/28 104/162/28
f 73/45/7 97/141/7 82/182/7 58/157/7
f 59/83/15 83/183/15 94/184/15 70/84/15
f 75/154/2 99/185/2 92/153/2 68/152/2
f 77/89/2 101/145/2 83/186/2 59/90/2
f 58/52/1 82/187/1 89/135/1 65/53/1
f 72/155/7 96/188/7 100/189/7 76/156/7
f 66/71/15 90/190/15 81/191/15 57/72/15
f 79/2/1 103/192/1 104/193/1 80/3/1
f 70/84/15 94/184/15 90/190/15 66/71/15
f 76/96/15 100/194/15 99/195/15 75/97/15
f 78/29/7 102/134/7 85/142/7 61/30/7
f 71/151/7 95/150/7 96/188/7 72/155/7
f 120/66/16 10/65/7 29/104/7 116/103/16
f 107/196/5 105/197/24 106/198/19 110/199/19 111/200/18 112/201/8 109/202/6 108/203/6
f 117/204/4 115/205/25 105/206/24 107/207/5
f 118/8/3 43/7/2 41/28/2 119/27/3
f 113/208/17 114/209/9 112/210/8 111/211/18
f 114/212/9 113/213/17 120/214/16 116/215/16 115/216/25 117/217/4 118/218/3 119/219/3
f 126/220/11 125/221/21 127/222/20 121/223/29 122/224/12
f 128/225/22 129/226/10 124/227/26 123/228/23
f 33/76/15 31/73/15 123/80/23 121/229/29 127/77/20
f 129/230/10 128/231/22 125/232/21 126/233/11
f 39/37/1 14/54/1 21/35/1 122/40/12 124/234/26 129/38/10
f 122/235/12 121/236/29 123/237/23 124/238/26
o Cube.021_Cube.029
v -2.407248 4.020957 -0.615430
v -2.407249 4.020957 -2.298203
v 2.611716 4.020957 -0.615431
v 2.611716 4.020957 -2.298203
v -2.407249 4.020957 -3.969230
v 2.611716 4.020957 -3.969231
v -2.407248 4.020957 0.970526
v 2.611717 4.020956 0.970525
v -2.407248 4.251958 -0.615430
v -2.407249 4.251958 -2.298203
v 2.611716 4.251957 -0.615431
v 2.611716 4.251958 -2.298203
v -2.407249 4.251958 -3.969230
v 2.611716 4.251958 -3.969231
v -2.407248 4.251957 0.970526
v 2.611717 4.251957 0.970525
vt 1.944516 0.059484
vt 1.944516 0.500000
vt 1.930799 0.500000
vt 1.930799 0.059484
vt 1.917082 0.231472
vt 1.917082 0.059484
vt 1.930799 0.231472
vt 1.944516 0.500000
vt 1.944516 0.940516
vt 1.930799 0.940516
vt 1.930799 0.500000
vt 1.917082 0.595173
vt 1.917082 0.413959
vt 1.930799 0.413959
vt 1.930799 0.595173
vt 1.917082 0.231472
vt 1.917082 0.413959
vt 1.903365 0.413959
vt 1.903365 0.231472
vt 1.917082 0.595173
vt 1.903366 0.595173
vt 1.917082 0.059484
vt 1.903365 0.059484
vt 1.483424 0.595173
vt 1.483424 0.423185
vt 1.903365 0.423185
vt 1.903365 0.595173
vt 1.483424 0.240697
vt 1.903365 0.240697
vt 1.483424 0.059484
vt 1.903365 0.059484
vt 1.483424 0.059484
vt 1.483424 0.240697
vt 1.063483 0.240697
vt 1.063483 0.059484
vt 1.483424 0.423185
vt 1.063483 0.423185
vt 1.483424 0.595173
vt 1.063483 0.595173
vn 0.0000 0.0000 1.0000
vn -1.0000 0.0000 0.0000
vn -0.0000 0.0000 -1.0000
vn 1.0000 0.0000 -0.0000
vn 0.0000 1.0000 0.0000
vn -0.0000 -1.0000 -0.0000
usemtl Material.007
s 1
f 136/239/30 137/240/30 145/241/30 144/242/30
f 130/243/31 136/244/31 144/242/31 138/245/31
f 135/246/32 134/247/32 142/248/32 143/249/32
f 134/250/31 131/251/31 139/252/31 142/253/31
f 132/254/33 133/255/33 141/256/33 140/257/33
f 133/255/33 135/258/33 143/259/33 141/256/33
f 131/251/31 130/243/31 138/245/31 139/252/31
f 137/260/33 132/254/33 140/257/33 145/261/33
f 145/262/34 140/263/34 138/264/34 144/265/34
f 140/263/34 141/266/34 139/267/34 138/264/34
f 141/266/34 143/268/34 142/269/34 139/267/34
f 135/270/35 133/271/35 131/272/35 134/273/35
f 133/271/35 132/274/35 130/275/35 131/272/35
f 132/274/35 137/276/35 136/277/35 130/275/35
