# Blender v2.82 (sub 7) OBJ File: 'Props layout.blend'
# www.blender.org
mtllib BUILD_Dinner.mtl
o Cube.015_Cube.019
v 2.499431 0.914097 4.965397
v 2.499431 2.221130 4.965397
v -3.669794 0.914097 4.965398
v -3.669794 2.221130 4.965398
v 2.660685 3.619223 -7.207479
v -3.483278 -0.090598 6.131979
v 2.660685 3.619226 6.587140
v -3.864489 3.619223 -7.207479
v -3.864489 3.619226 6.587140
v 2.193484 -0.090599 1.065500
v 2.193484 -0.090598 6.131979
v 2.660685 3.619224 -1.864193
v -3.864489 3.619224 -1.864193
v -3.483278 -0.090599 1.065500
v 2.660685 3.619225 1.065500
v -3.864489 3.619225 1.065500
v -3.483278 -0.090600 -6.586925
v 2.193484 3.619226 6.587140
v 2.193484 -0.090600 -6.586925
v 2.193484 3.619223 -7.207479
v 2.660685 -0.090600 -6.586925
v 2.193484 3.619224 -1.864193
v -3.864489 -0.090600 -6.586925
v 2.193484 3.619225 1.065500
v -3.483278 3.619226 6.587140
v -3.864489 -0.090598 6.131979
v 2.660685 -0.090598 6.131979
v -3.483278 3.619223 -7.207479
v -3.483278 3.619224 -1.864193
v -3.483278 3.619225 1.065500
v 2.660685 3.619226 6.131978
v -3.864489 3.619226 6.131978
v -3.483278 -0.090599 -1.864192
v -3.483278 -0.090600 -7.207478
v 2.193484 3.619226 6.131978
v -3.483278 -0.090598 6.587141
v -3.483278 3.619226 6.131978
v -3.864489 3.619223 -6.586926
v 2.193484 -0.090599 -1.864192
v 2.660685 3.619223 -6.586926
v 2.193484 3.619223 -6.586926
v 2.193484 -0.090600 -7.207478
v 2.193484 -0.090598 6.587141
v -3.483278 3.619223 -6.586926
v -3.864489 -0.090599 1.065500
v 2.660685 -0.090599 1.065500
v -3.864489 -0.090599 -1.864192
v 2.660685 -0.090599 -1.864192
v -3.864489 -0.090598 6.587141
v -3.864489 -0.090600 -7.207478
v 2.660685 -0.090598 6.587141
v 2.660685 -0.090600 -7.207478
v 2.193484 -0.090599 0.807274
v 2.660685 -0.090599 0.807274
v 2.193484 2.212214 0.807274
v 2.660685 2.212214 0.807274
v 2.193484 2.212213 -1.669196
v 2.660685 2.212214 -1.669196
v 2.193483 -0.090599 -1.669195
v 2.660685 -0.090599 -1.669195
v -0.644897 -0.090598 6.131979
v -0.644897 -0.090598 6.587141
v -0.644897 5.428792 6.587140
v -0.644897 5.428792 6.131978
v -0.644897 5.428790 -7.207479
v -0.644897 -0.090600 -6.586925
v -0.644897 5.428790 -6.586926
v -0.644897 -0.090600 -7.207478
v -0.415335 2.221130 6.131978
v 2.193484 2.221130 6.587140
v -0.415335 2.221130 6.587140
v -0.415335 0.914097 6.131978
v -0.415335 0.914097 6.587140
v -3.483278 2.221130 6.131978
v -3.483278 2.221130 6.587140
v -3.669794 2.221130 6.587140
v -0.755028 2.221130 6.131978
v -3.483278 2.221130 4.965398
v -0.755027 2.221130 6.587140
v -0.755028 0.914097 6.131978
v -0.755028 0.914097 6.587140
v -3.483278 0.914097 4.965398
v -3.483278 0.914097 6.131978
v -3.483278 0.914097 6.587141
v -3.669794 0.914097 6.587140
v 2.499432 2.221130 6.587140
v 2.193484 2.221130 6.131978
v 2.193484 2.221130 4.965397
v 2.499431 0.914097 6.587140
v 2.193484 0.914097 6.131978
v 2.193484 0.914097 6.587141
v 2.193484 0.914097 4.965397
v 2.660685 0.914097 4.196414
v 2.193484 0.914097 4.196414
v 2.660685 2.221130 4.196414
v 2.193484 2.221130 4.196414
v -3.483278 2.221130 4.196414
v -3.864489 2.221130 4.196414
v -3.864489 2.201948 4.196414
v -3.483278 0.914097 4.196414
v -3.483278 1.326679 4.196414
v -3.864489 0.914097 4.196414
v 2.660685 0.914097 1.281648
v 2.193484 0.914097 1.281648
v 2.660685 2.221130 1.281648
v 2.193484 2.221130 1.281648
v -3.483278 0.914097 1.281647
v -3.864489 0.914097 1.281647
v -3.483278 2.221130 1.281647
v -3.864489 2.221130 1.281647
v 2.660685 0.914097 -2.430871
v 2.193484 0.914097 -2.430871
v 2.660685 2.221130 -2.430871
v 2.193484 2.221130 -2.430871
v -3.864489 2.221130 -2.430870
v -3.483278 2.221130 -2.430870
v -3.864489 0.914097 -2.430870
v -3.483278 0.914097 -2.430870
v -3.864489 2.221130 -5.345635
v -3.483278 2.221130 -5.345635
v -3.864489 0.914097 -5.345635
v -3.483278 0.914097 -5.345635
v 2.660685 0.914097 -5.345637
v 2.193484 0.914097 -5.345637
v 2.660685 2.221130 -5.345637
v 2.193484 2.221130 -5.345637
vt 0.955189 0.744294
vt 0.955189 0.809370
vt 0.895084 0.809370
vt 0.895084 0.744294
vt 0.312875 0.658432
vt 0.304298 0.658432
vt 0.304298 0.605985
vt 0.312875 0.605985
vt 0.282537 0.018264
vt 0.300068 0.018264
vt 0.300068 0.000000
vt 0.282537 0.000000
vt 0.470668 0.024901
vt 0.300068 0.024901
vt 0.300068 0.214410
vt 0.470668 0.214410
vt 0.406375 0.191671
vt 0.346270 0.191671
vt 0.346270 0.074710
vt 0.406375 0.074710
vt 0.470668 0.535273
vt 0.300068 0.535273
vt 0.300068 0.553537
vt 0.470668 0.553537
vt 0.470668 0.024901
vt 0.641269 0.024901
vt 0.641269 0.000000
vt 0.470668 0.000000
vt 0.470668 0.214410
vt 0.641269 0.214410
vt 0.595066 0.074710
vt 0.595066 0.191671
vt 0.534961 0.191671
vt 0.470668 0.331970
vt 0.300068 0.331970
vt 0.405493 0.457605
vt 0.346270 0.457605
vt 0.346270 0.340644
vt 0.406375 0.340644
vt 0.282537 0.528636
vt 0.300068 0.528636
vt 0.300068 0.339127
vt 0.282537 0.339127
vt 0.470668 0.553537
vt 0.641269 0.553537
vt 0.641269 0.535273
vt 0.470668 0.535273
vt 0.253815 0.682730
vt 0.000000 0.682730
vt 0.000000 0.796626
vt 0.046202 0.796626
vt 0.046202 0.691942
vt 0.106307 0.691942
vt 0.106307 0.796626
vt 0.170600 0.796626
vt 0.300068 0.221567
vt 0.282537 0.221567
vt 0.000000 0.339127
vt 0.021485 0.339127
vt 0.021485 0.221567
vt 0.000000 0.221567
vt 0.000000 0.528636
vt 0.021485 0.528636
vt 0.470668 0.331970
vt 0.641269 0.331970
vt 0.641269 0.321608
vt 0.535371 0.321608
vt 0.535371 0.222235
vt 0.641269 0.222235
vt 0.000000 0.018264
vt 0.021485 0.018264
vt 0.021485 0.000000
vt 0.000000 0.000000
vt 0.811869 0.510372
vt 0.641269 0.510372
vt 0.641269 0.529120
vt 0.811869 0.529120
vt 0.470668 0.000000
vt 0.300068 0.000000
vt 0.895084 0.643015
vt 0.641269 0.643016
vt 0.641269 0.756911
vt 0.811869 0.756911
vt 0.982469 0.000000
vt 0.918177 0.000000
vt 0.918177 0.046811
vt 0.858071 0.046811
vt 0.877044 0.077668
vt 0.918177 0.077669
vt 0.918177 0.194630
vt 0.858071 0.194630
vt 0.811869 0.203303
vt 0.982470 0.203303
vt 0.152011 0.018264
vt 0.152011 0.000000
vt 0.641269 0.667433
vt 0.387453 0.667433
vt 0.387453 0.781329
vt 0.433655 0.781329
vt 0.433655 0.671853
vt 0.493761 0.671853
vt 0.493761 0.781329
vt 0.558054 0.781329
vt 0.106307 0.808903
vt 0.046202 0.808903
vt 0.000000 0.815373
vt 0.170600 0.815373
vt 0.811869 0.000000
vt 0.641269 0.000000
vt 0.641269 0.189509
vt 0.811869 0.189509
vt 0.747576 0.166770
vt 0.687471 0.166770
vt 0.687471 0.049809
vt 0.747576 0.049809
vt 0.152011 0.553537
vt 0.282537 0.553537
vt 0.152011 0.528636
vt 0.641269 0.772208
vt 0.811869 0.772208
vt 0.170600 0.553537
vt 0.000000 0.553537
vt 0.000000 0.568834
vt 0.046202 0.568834
vt 0.046202 0.561350
vt 0.106307 0.561350
vt 0.106307 0.568834
vt 0.170600 0.568834
vt 0.000000 0.553537
vt 0.021485 0.553537
vt 0.300068 0.553537
vt 0.534961 0.457605
vt 0.534961 0.340644
vt 0.595066 0.340644
vt 0.982470 0.320863
vt 0.811869 0.320863
vt 0.811869 0.510372
vt 0.858071 0.460563
vt 0.858071 0.343602
vt 0.918177 0.343602
vt 0.811869 0.307069
vt 0.641269 0.307069
vt 0.641269 0.510372
vt 0.687471 0.510372
vt 0.687471 0.463561
vt 0.687471 0.432704
vt 0.687471 0.315743
vt 0.747576 0.315743
vt 0.641269 0.886104
vt 0.895084 0.886104
vt 0.895084 0.772208
vt 0.724484 0.772208
vt 0.641269 0.197334
vt 0.747166 0.197334
vt 0.747166 0.296707
vt 0.641269 0.296707
vt 0.976674 0.843668
vt 0.955189 0.843668
vt 0.955189 0.744294
vt 0.976674 0.744294
vt 0.447559 0.873734
vt 0.469043 0.873734
vt 0.469043 0.781329
vt 0.447559 0.781329
vt 0.469043 0.873734
vt 0.490528 0.873734
vt 0.490528 0.781329
vt 0.469043 0.781329
vt 0.558054 0.553537
vt 0.493761 0.553537
vt 0.493761 0.658222
vt 0.433655 0.658222
vt 0.433655 0.553537
vt 0.387453 0.553537
vt 0.106307 0.678311
vt 0.046202 0.678311
vt 0.724484 1.000000
vt 0.895084 1.000000
vt 0.512013 0.781329
vt 0.533498 0.781329
vt 0.533498 0.833777
vt 0.512013 0.833777
vt 0.747576 0.510372
vt 0.811869 0.510372
vt 0.747576 0.432704
vt 0.747576 0.463561
vt 0.976674 0.744294
vt 0.994205 0.744294
vt 0.994205 0.861255
vt 0.976674 0.861255
vt 0.275300 0.787459
vt 0.253815 0.787459
vt 0.253815 0.670498
vt 0.275300 0.670498
vt 0.275300 0.553537
vt 0.296785 0.553537
vt 0.296785 0.670498
vt 0.275300 0.670498
vt 0.576467 0.781329
vt 0.597398 0.781329
vt 0.597398 0.833777
vt 0.576467 0.833777
vt 0.576467 0.833777
vt 0.554982 0.833777
vt 0.554982 0.781329
vt 0.576467 0.781329
vt 0.982469 0.000000
vt 1.000000 0.000000
vt 1.000000 0.116961
vt 0.982470 0.116961
vt 0.310361 0.839907
vt 0.292831 0.839907
vt 0.292831 0.788229
vt 0.292831 0.787459
vt 0.310361 0.787459
vt 0.310361 0.823351
vt 0.253815 0.553537
vt 0.275300 0.553537
vt 0.275300 0.670498
vt 0.253815 0.670498
vt 0.447559 0.781329
vt 0.447559 0.846405
vt 0.387453 0.846405
vt 0.387453 0.781329
vt 0.858071 0.000000
vt 0.811869 0.000000
vt 0.858071 0.077669
vt 0.257770 0.787459
vt 0.275300 0.787459
vt 0.275300 0.839907
vt 0.257770 0.839907
vt 0.554982 0.833777
vt 0.533498 0.833777
vt 0.533498 0.781329
vt 0.554982 0.781329
vt 0.969662 0.627333
vt 0.948731 0.627333
vt 0.948731 0.517857
vt 0.895084 0.517857
vt 0.895084 0.510372
vt 0.969662 0.510372
vt 0.969662 0.517857
vt 0.623738 0.781329
vt 0.641269 0.781329
vt 0.641269 0.833777
vt 0.623738 0.833777
vt 0.987192 0.744294
vt 0.969662 0.744294
vt 0.969662 0.627333
vt 0.987192 0.627333
vt 0.312875 0.605985
vt 0.298806 0.605985
vt 0.298806 0.553537
vt 0.312875 0.553537
vt 0.987192 0.627333
vt 0.969662 0.627333
vt 0.969662 0.510372
vt 0.987192 0.510372
vt 0.275300 0.787459
vt 0.292831 0.787459
vt 0.292831 0.839907
vt 0.275300 0.839907
vt 0.312875 0.670498
vt 0.333807 0.670498
vt 0.333807 0.775183
vt 0.387453 0.775183
vt 0.387453 0.787459
vt 0.312875 0.787459
vt 0.312875 0.775183
vt 0.406375 0.457605
vt 0.275300 0.670498
vt 0.296785 0.670498
vt 0.296785 0.787459
vt 0.275300 0.787459
vt 0.969662 0.744294
vt 0.895084 0.744294
vt 0.895084 0.736810
vt 0.948731 0.736810
vt 0.948731 0.627333
vt 0.969662 0.627333
vt 0.969662 0.736810
vt 0.387453 0.670498
vt 0.312875 0.670498
vt 0.312875 0.658222
vt 0.366522 0.658222
vt 0.366522 0.553537
vt 0.387453 0.553537
vt 0.387453 0.658222
vt 0.490528 0.781329
vt 0.512013 0.781329
vt 0.512013 0.833777
vt 0.490528 0.833777
vt 0.595067 0.457605
vt 0.534961 0.074710
vt 0.982470 0.510372
vt 0.918177 0.460563
vt 0.618330 0.833777
vt 0.597398 0.833777
vt 0.597398 0.781329
vt 0.618330 0.781329
vn -1.0000 0.0000 0.0000
vn -0.5773 0.5774 0.5774
vn -0.5774 -0.5773 0.5774
vn 0.0000 0.0000 1.0000
vn 0.8590 0.3620 0.3620
vn 0.5774 -0.5773 0.5773
vn 0.0000 1.0000 -0.0000
vn -0.9045 -0.3015 -0.3015
vn -0.5774 0.5773 -0.5774
vn -0.5774 0.5774 0.5773
vn -0.9045 -0.3015 0.3015
vn 1.0000 0.0000 0.0000
vn 0.9045 0.3015 0.3015
vn 0.5774 0.5774 -0.5774
vn 0.9045 -0.3015 -0.3015
vn -0.7071 -0.0000 -0.7071
vn -0.5774 0.5774 -0.5774
vn -0.5774 0.5774 0.5774
vn -0.0000 0.7071 0.7071
vn 0.5774 0.5774 0.5774
vn 0.5773 -0.5774 0.5774
vn -0.0000 -0.7071 0.7071
vn 0.5774 -0.5774 -0.5773
vn 0.5774 -0.5774 0.5773
vn 0.0000 -0.0000 -1.0000
vn 0.5774 -0.5774 -0.5774
vn 0.7071 0.0000 -0.7071
vn 0.5774 -0.5774 0.5774
vn -0.5376 0.8432 0.0000
vn -0.5774 -0.5774 -0.5774
vn 0.5773 0.5774 0.5773
vn 0.5774 -0.5773 0.5774
vn 0.5773 0.5774 -0.5774
vn -0.9045 0.3015 0.3015
vn -0.9045 0.3015 -0.3015
vn -0.5773 -0.5774 0.5774
vn -0.5773 -0.5774 -0.5774
vn 0.5376 0.8432 0.0000
vn -0.5774 -0.5774 0.5774
vn -0.5774 -0.5773 -0.5773
vn 0.0000 -1.0000 0.0000
usemtl Material.006
s 1
f 1/1/1 89/2/2 86/3/3 2/4/1
f 3/5/4 82/6/5 78/7/6 4/8/4
f 37/9/7 32/10/7 9/11/7 25/12/7
f 38/13/1 23/14/1 47/15/1 13/16/1 115/17/8 117/18/9 121/19/10 119/20/11
f 32/21/1 26/22/1 49/23/1 9/24/1
f 40/25/12 21/26/12 52/27/12 5/28/12
f 12/29/12 48/30/12 21/26/12 123/31/13 111/32/14 113/33/15
f 16/34/1 45/35/1 26/22/1 32/21/1 99/36/16 102/37/17 108/38/18 110/39/11
f 44/40/7 38/41/7 13/42/7 29/43/7
f 7/44/12 51/45/12 27/46/12 31/47/12
f 63/48/4 62/49/4 43/50/4 91/51/19 73/52/20 71/53/21 70/54/22 18/55/4
f 29/43/7 13/42/7 16/56/7 30/57/7
f 12/58/7 22/59/7 24/60/7 15/61/7
f 40/62/7 41/63/7 22/59/7 12/58/7
f 15/64/12 46/65/12 54/66/12 56/67/23 58/68/24 60/69/12 48/30/12 12/29/12
f 31/70/7 35/71/7 18/72/7 7/73/7
f 5/74/25 52/75/25 42/76/25 20/77/25
f 8/78/1 50/79/1 23/14/1 38/13/1
f 65/80/25 68/81/25 34/82/25 28/83/25
f 37/84/12 74/85/26 78/86/6 82/87/5 101/88/27 97/89/26 109/90/28 107/91/13 14/92/12 30/93/12
f 64/94/29 37/9/29 25/12/29 63/95/29
f 64/96/25 61/97/25 6/98/25 83/99/14 80/100/17 77/101/30 74/102/26 37/103/25
f 18/55/4 70/54/22 86/104/3 89/105/2 91/51/19 43/50/4 51/106/4 7/107/4
f 15/61/7 24/60/7 35/71/7 31/70/7
f 41/108/1 19/109/1 39/110/1 22/111/1 114/112/8 112/113/17 124/114/18 126/115/11
f 13/16/1 47/15/1 45/35/1 16/34/1
f 30/57/7 16/56/7 32/10/7 37/9/7
f 65/116/29 28/117/29 44/40/29 67/118/29
f 28/83/25 34/82/25 50/119/25 8/120/25
f 9/121/4 49/122/4 36/123/4 84/124/19 85/125/31 76/126/21 75/127/22 25/128/4
f 5/129/7 20/130/7 41/63/7 40/62/7
f 28/117/7 8/131/7 38/41/7 44/40/7
f 31/47/12 95/132/15 105/133/32 103/134/13 46/65/12 15/64/12
f 29/135/12 33/136/12 17/137/12 122/138/13 118/139/33 116/140/15
f 30/93/12 14/92/12 33/136/12 29/135/12
f 24/141/1 10/142/1 11/143/1 90/144/9 92/145/34 94/146/35 104/147/18 106/148/11
f 67/149/4 66/150/4 19/151/4 41/152/4
f 22/111/1 39/110/1 59/153/1 57/154/36 55/155/37 53/156/1 10/142/1 24/141/1
f 56/157/23 55/158/37 57/159/36 58/160/24
f 59/161/4 60/162/4 58/163/24 57/164/36
f 55/165/37 56/166/23 54/167/25 53/168/25
f 35/169/25 87/170/30 69/171/26 72/172/14 90/173/9 11/174/25 61/97/25 64/96/25
f 35/71/38 64/94/38 63/95/38 18/72/38
f 25/128/4 75/127/22 79/175/39 81/176/18 84/124/19 36/123/4 62/49/4 63/48/4
f 44/177/4 17/178/4 66/150/4 67/149/4
f 20/130/38 65/116/38 67/118/38 41/63/38
f 20/77/25 42/76/25 68/81/25 65/80/25
f 111/179/14 112/180/17 114/181/8 113/182/15
f 87/183/30 35/184/1 24/141/1 106/148/11 96/185/30 94/146/35 92/145/34 88/186/39
f 107/187/13 108/188/18 102/189/17 100/190/14
f 113/191/15 114/192/8 126/193/11 125/194/28
f 123/195/13 124/196/18 112/197/17 111/198/14
f 80/199/17 81/200/18 79/201/39 77/202/30
f 124/203/18 123/204/13 125/205/28 126/206/11
f 122/207/13 121/208/10 117/209/9 118/210/33
f 100/211/14 102/212/17 99/213/16 98/214/40 97/215/26 101/216/27
f 103/217/13 104/218/18 94/219/35 93/220/14
f 85/221/31 3/222/12 4/223/12 76/224/21
f 83/225/14 6/226/12 14/92/12 107/91/13 100/227/14 101/88/27 82/87/5
f 118/228/33 117/229/9 115/230/8 116/231/15
f 104/232/18 103/233/13 105/234/32 106/235/11
f 81/236/18 80/237/17 83/238/14 82/239/5 3/240/7 85/241/31 84/242/19
f 22/111/1 41/108/1 126/115/11 114/112/8
f 108/243/18 107/244/13 109/245/28 110/246/11
f 97/247/26 98/248/40 110/249/11 109/250/28
f 92/251/34 1/252/4 2/253/4 88/254/39
f 116/255/15 115/256/8 119/257/11 120/258/28
f 121/259/10 122/260/13 120/261/28 119/262/11
f 71/263/21 69/264/26 87/265/30 88/266/39 2/267/41 86/268/3 70/269/22
f 32/21/1 16/34/1 110/39/11 98/270/40 99/36/16
f 95/271/15 96/272/30 106/273/11 105/274/32
f 13/16/1 38/13/1 119/20/11 115/17/8
f 76/275/21 4/276/41 78/277/6 74/278/26 77/279/30 79/280/39 75/281/22
f 89/282/2 1/283/7 92/284/34 90/285/9 72/286/14 73/287/20 91/288/19
f 93/289/14 94/290/35 96/291/30 95/292/15
f 95/132/15 31/47/12 27/46/12 46/65/12 103/134/13 93/293/14
f 21/26/12 40/25/12 12/29/12 113/33/15 125/294/28 123/31/13
f 17/137/12 44/295/12 29/135/12 116/140/15 120/296/28 122/138/13
f 73/297/20 72/298/14 69/299/26 71/300/21
o Cube.016_Cube.020
v -4.223033 3.118299 6.604913
v -0.573998 5.282074 6.604913
v 3.083163 3.118299 6.604913
v -4.223033 3.118294 -7.207428
v -0.573997 5.282070 -7.207430
v 3.083163 3.118294 -7.207428
v -4.223033 3.456301 6.604913
v -0.573998 5.620078 6.604912
v 3.083163 3.456301 6.604913
v -4.223033 3.456297 -7.207428
v -0.573997 5.620073 -7.207430
v 3.083163 3.456297 -7.207428
vt 1.970219 0.938117
vt 1.951706 0.938117
vt 1.833192 0.710721
vt 1.851705 0.710721
vt 1.047623 0.027522
vt 1.243876 0.027522
vt 1.243876 0.972478
vt 1.047623 0.972478
vt 1.243876 0.027522
vt 1.440407 0.027522
vt 1.440407 0.972478
vt 1.243876 0.972478
vt 1.970219 0.027522
vt 1.981399 0.027522
vt 1.981399 0.972478
vt 1.970219 0.972478
vt 1.440407 0.972478
vt 1.440407 0.027522
vt 1.636938 0.027522
vt 1.636938 0.972478
vt 1.833192 0.482819
vt 1.951706 0.255424
vt 1.970219 0.255424
vt 1.851705 0.482819
vt 1.851705 0.027522
vt 1.833192 0.027522
vt 1.036443 0.972478
vt 1.036443 0.027522
vt 1.951706 0.482819
vt 1.970219 0.482819
vt 1.636938 0.972478
vt 1.636938 0.027522
vt 1.833192 0.027522
vt 1.833192 0.972478
vn -0.8349 -0.0000 -0.5504
vn -0.5979 -0.0000 -0.8016
vn 0.0000 -0.0000 -1.0000
vn -0.5100 0.8601 -0.0000
vn -0.0005 1.0000 -0.0000
vn 0.4123 -0.7230 0.5543
vn 0.0005 -1.0000 0.0000
vn 0.4123 -0.7230 -0.5543
vn 0.6878 0.3922 0.6108
vn 0.6878 0.3922 -0.6108
vn -0.8349 0.0000 0.5504
vn -0.0000 0.0000 1.0000
vn -0.5979 0.0000 0.8016
vn 0.5100 -0.8601 0.0000
usemtl Roof.005
s 1
f 130/301/42 136/302/43 137/303/44 131/304/44
f 133/305/45 134/306/46 137/307/46 136/308/45
f 129/309/47 128/310/48 131/311/48 132/312/49
f 135/313/50 129/314/47 132/315/49 138/316/51
f 137/317/46 134/318/46 135/319/50 138/320/51
f 127/321/52 128/322/53 134/323/53 133/324/54
f 135/325/50 134/323/53 128/322/53 129/326/47
f 130/327/42 127/328/52 133/305/54 136/308/43
f 138/329/51 132/330/49 131/304/44 137/303/44
f 127/331/55 130/332/55 131/333/48 128/334/48
