# Blender v2.82 (sub 7) OBJ File: ''
# www.blender.org
mtllib BUILD_Bunker1.mtl
o 2x2m.003_Cube.2673
v 6.537652 -4.925601 23.518894
v -2.305036 0.163111 -3.353654
v -8.772105 0.163114 23.515753
v 0.533324 0.162750 37.439129
v -2.000122 0.163111 0.441408
v 6.537652 0.162750 37.437061
v -8.772105 -4.925235 18.054989
v -2.000122 0.162946 0.441627
v -8.772105 0.163113 18.054991
v 6.537652 0.162748 23.518896
v -2.004211 -3.267495 11.670718
v -0.003204 0.162746 11.671265
v -2.003204 0.163112 11.670717
v 6.537652 -4.925599 37.437061
v 0.533324 -4.925599 37.439129
v -8.772105 -4.925234 23.515753
v 6.536650 0.162747 18.052299
v -6.548157 0.163111 0.441409
v -6.549319 0.163112 11.539303
v 4.224203 0.162744 0.441956
v 6.542034 0.162744 -3.352991
v 4.220416 0.162747 18.094019
v -2.001129 -3.267643 0.441546
v -6.547931 -3.267497 0.441409
v 4.223196 -3.267863 0.441956
v -0.004211 -3.267861 11.671266
v -6.550006 0.163113 18.096239
v 4.219673 -3.267860 18.094025
v -0.004211 -3.267860 18.094025
v -6.551454 -3.267494 18.094398
v -2.004211 -3.267494 18.093477
v -8.769477 0.163111 -3.353654
v 4.221120 0.162750 34.079834
v -0.003204 0.162747 18.094025
v -6.550006 0.000369 18.099001
v -2.003204 0.163113 18.093477
v -6.550006 0.163114 22.599504
v -2.003204 0.163114 22.600283
v 4.221120 0.162748 22.602097
v -0.003204 0.162748 22.600830
v -2.305036 0.162946 -3.353388
v -0.003204 0.162750 34.081543
v -2.003204 0.163116 34.080994
v -6.550006 0.163116 34.082165
v -2.309417 0.163116 37.438465
v -6.550006 -3.479549 22.600283
v -2.003204 -3.479549 22.600283
v 4.221120 -3.479916 22.600830
v -0.003204 -3.479916 22.600830
v -6.550006 -3.479547 34.080994
v -2.003204 -3.479547 34.080994
v 4.221120 -3.479914 34.081543
v -0.003204 -3.479914 34.081543
v -2.305036 -4.925238 -3.353654
v -8.772105 0.163116 37.439888
v 6.536650 -4.925601 18.052298
v 6.542034 -4.925604 -3.352991
v -8.769477 -4.925238 -3.353654
v -2.305036 -4.925403 -3.353388
v -2.309417 -4.925232 37.438465
v -8.772105 -4.925232 37.439888
v 0.830272 -4.925474 -3.353247
v 0.830272 0.162874 -3.353247
v 0.204706 -3.267721 0.441691
v 0.205713 0.162874 0.441744
v 4.221197 -3.267861 11.831000
v 4.221775 0.162746 11.758060
v 6.538254 0.162746 11.674339
v 6.538152 -4.925602 12.078471
v -8.771303 0.163113 11.526468
v -6.550210 -3.267495 11.858308
v -8.771349 -4.925236 11.892802
vt 0.234564 0.082340
vt 0.248923 0.000035
vt 0.409504 0.000097
vt 0.347540 0.082390
vt 0.347507 0.363748
vt 0.409464 0.341278
vt 0.409422 0.475283
vt 0.347476 0.474256
vt 0.575999 0.275276
vt 0.522510 0.275283
vt 0.516983 0.000007
vt 0.575977 0.000011
vt 0.181075 0.082350
vt 0.059474 0.082313
vt 0.000056 0.000000
vt 0.172896 0.000046
vt 0.697577 0.000022
vt 0.697577 0.279889
vt 1.000000 0.281431
vt 1.000000 0.553474
vt 0.970636 0.561298
vt 0.970637 0.281435
vt 0.059427 0.906963
vt 0.181061 0.906971
vt 0.172896 1.000000
vt 0.000009 0.999988
vt 0.876472 0.654805
vt 0.847093 0.654826
vt 0.847094 0.562863
vt 0.876472 0.562867
vt 0.059441 0.363792
vt 0.000016 0.341328
vt 0.741151 0.475190
vt 0.741151 0.635226
vt 0.697577 0.626246
vt 0.697577 0.475190
vt 0.590217 0.590201
vt 0.590217 0.432757
vt 0.619595 0.432757
vt 0.619595 0.590201
vt 0.689991 0.432762
vt 0.689995 0.432757
vt 0.648963 0.520496
vt 0.648958 0.520502
vt 0.784706 0.695241
vt 0.784706 0.654801
vt 0.814083 0.654820
vt 0.814083 0.695261
vt 0.576021 0.563491
vt 0.576021 0.655438
vt 0.546643 0.655409
vt 0.546643 0.563471
vt 0.678336 0.576141
vt 0.648959 0.576162
vt 0.648959 0.531559
vt 0.678336 0.531539
vt 0.240055 0.906966
vt 0.256747 0.999996
vt 0.172896 0.999994
vt 0.181061 0.906965
vt 0.897682 0.676409
vt 0.897682 0.591001
vt 0.927060 0.591021
vt 0.927060 0.676424
vt 0.970636 0.281431
vt 0.970636 0.560616
vt 0.941258 0.558828
vt 0.941258 0.281431
vt 0.619595 0.432761
vt 0.648958 0.432757
vt 0.648958 0.590199
vt 0.619595 0.590202
vt 0.059429 0.474183
vt 0.000000 0.475190
vt 0.181029 0.474258
vt 0.234518 0.474249
vt 0.234500 0.631692
vt 0.181011 0.631702
vt 0.181042 0.363781
vt 0.234531 0.363771
vt 0.409446 0.631629
vt 0.347494 0.629572
vt 0.471892 0.714189
vt 0.440698 0.714189
vt 0.440698 0.432757
vt 0.471892 0.432757
vt 0.440698 0.432757
vt 0.440698 0.714189
vt 0.409504 0.714147
vt 0.409504 0.432788
vt 0.784706 0.281431
vt 0.897682 0.281431
vt 0.897682 0.562863
vt 0.784706 0.562863
vt 0.906307 0.000000
vt 0.906307 0.281431
vt 0.784706 0.281431
vt 0.784706 0.000000
vt 0.534263 0.611649
vt 0.534263 0.697066
vt 0.503070 0.697066
vt 0.503070 0.611649
vt 0.815899 0.654801
vt 0.784706 0.654801
vt 0.784706 0.562863
vt 0.815899 0.562863
vt 0.906307 0.281431
vt 0.906307 0.000004
vt 0.937484 0.000000
vt 0.937484 0.281427
vt 0.471892 0.714207
vt 0.471892 0.432781
vt 0.503069 0.432757
vt 0.503070 0.714232
vt 0.815899 0.562863
vt 0.847093 0.562863
vt 0.847093 0.654801
vt 0.815899 0.654801
vt 0.619595 0.590201
vt 0.619595 0.675618
vt 0.588401 0.675618
vt 0.588401 0.590201
vt 0.059428 0.634915
vt 0.000003 0.635226
vt 0.741151 0.341328
vt 0.697577 0.341328
vt 0.784704 0.658711
vt 0.741152 0.658716
vt 0.741151 0.524714
vt 0.784703 0.524708
vt 0.741151 0.000000
vt 0.697577 0.000000
vt 0.503070 0.548252
vt 0.546643 0.548251
vt 0.546643 0.611648
vt 0.503070 0.611649
vt 0.897684 0.469591
vt 0.941258 0.469591
vt 0.941256 0.591001
vt 0.897682 0.591000
vt 0.784705 0.999887
vt 0.741154 0.999893
vt 0.897682 0.412109
vt 0.897684 0.281431
vt 0.941258 0.281432
vt 0.941256 0.412110
vt 0.741152 0.378277
vt 0.784704 0.368365
vt 0.689995 0.531533
vt 0.689991 0.531539
vt 0.546643 0.563471
vt 0.546643 0.432757
vt 0.590217 0.432757
vt 0.590217 0.563471
vt 0.503070 0.432758
vt 0.546643 0.432757
vt 0.347526 0.906968
vt 0.409504 1.000000
vt 0.678336 0.657397
vt 0.648958 0.657417
vt 0.522476 0.432726
vt 0.409511 0.432712
vt 0.409504 0.279184
vt 0.409511 0.000000
vt 0.970636 0.714144
vt 0.941258 0.714143
vt 0.741154 0.000006
vt 0.784706 0.000000
vt 1.000000 0.714204
vt 0.970636 0.714163
vt 0.697577 0.432757
vt 0.575965 0.432720
vt 0.741151 0.999989
vt 0.697577 0.999989
vn 0.1333 0.5348 0.8344
vn 0.8450 0.5348 -0.0003
vn -0.4139 0.8109 -0.4137
vn 0.4138 0.8109 0.4137
vn 0.0000 1.0000 -0.0000
vn 0.7071 0.7071 -0.0001
vn 0.7071 0.7072 0.0000
vn 0.0001 1.0000 0.0000
vn 0.3014 0.9046 0.3015
vn 1.0000 -0.0002 0.0002
vn 0.7070 -0.0000 0.7072
vn 0.0002 1.0000 -0.0000
vn 0.3015 0.9045 0.3015
vn 0.0033 0.6919 0.7219
vn -0.0000 0.7245 -0.6893
vn -0.5773 0.5774 -0.5774
vn -0.0000 0.0000 1.0000
vn -0.0002 0.6920 0.7219
vn -0.7071 0.7071 -0.0000
vn -0.6928 0.6928 -0.1998
vn -0.9871 -0.0000 -0.1604
vn -1.0000 0.0000 -0.0001
vn -0.9871 0.0000 0.1602
vn -0.4470 0.8945 -0.0000
vn -0.5771 0.5775 -0.5774
vn -0.7070 0.0002 -0.7072
vn -1.0000 0.0003 -0.0000
vn 0.9900 -0.1168 -0.0795
vn 0.7070 -0.0004 -0.7072
vn 0.2502 0.3061 -0.9185
vn -0.0003 0.7072 -0.7070
vn -0.0004 0.9485 -0.3168
vn -0.0005 0.7068 -0.7074
vn -0.0001 -0.0000 1.0000
vn -0.0000 0.7071 0.7071
vn -0.0000 0.7244 0.6894
vn 0.0001 0.7071 -0.7071
vn 0.0001 0.6883 -0.7254
vn -0.5772 0.5774 -0.5774
vn -0.0000 0.7072 -0.7070
vn -0.0000 -0.0000 -1.0000
vn -0.7071 0.0001 -0.7071
vn -1.0000 0.0002 -0.0002
vn 1.0000 -0.0003 0.0000
vn 0.7070 -0.0002 -0.7072
vn 0.7074 -0.0002 -0.7068
vn 0.0000 0.9771 -0.2129
vn -0.0003 0.7075 -0.7067
vn -1.0000 0.0000 0.0000
vn -0.0002 -0.0002 -1.0000
vn 0.8448 -0.0001 -0.5351
vn -0.9492 -0.0001 -0.3147
vn -0.0001 0.0001 1.0000
vn 1.0000 0.0000 0.0000
vn -0.0001 0.0002 -1.0000
vn -0.0002 -0.0002 1.0000
vn 1.0000 0.0000 -0.0001
vn -0.7070 0.0000 0.7072
vn 0.0002 -0.8450 0.5348
vn 0.8452 0.0000 0.5345
vn 0.4755 0.7403 0.4753
vn 0.4754 -0.7403 0.4754
vn 1.0000 -0.0000 0.0003
vn -0.7071 0.0000 -0.7072
vn -0.0002 0.0000 1.0000
vn 0.5774 0.5773 -0.5773
vn 0.7072 0.0000 -0.7070
vn -0.0000 0.9487 0.3162
vn 1.0000 -0.0003 0.0002
usemtl Wall.013
s 1
f 42/1/1 4/2/2 6/3/3 33/4/4
f 39/5/5 10/6/6 17/7/7 22/8/5
f 11/9/5 26/10/5 64/11/8 23/12/8
f 43/13/5 44/14/5 55/15/5 45/16/5
f 11/9/5 23/12/8 24/17/5 71/18/5
f 18/19/9 19/20/10 71/21/10 24/22/11
f 42/1/12 43/13/12 45/16/12 4/2/12
f 18/23/13 5/24/14 2/25/15 32/26/16
f 23/27/17 5/28/18 18/29/9 24/30/11
f 44/14/5 37/31/5 3/32/19 55/15/5
f 9/33/20 70/34/21 72/35/22 7/36/23
f 36/37/24 13/38/25 11/39/26 31/40/27
f 5/41/28 8/42/28 41/43/28 2/44/28
f 26/45/29 11/46/26 13/47/25 12/48/30
f 33/4/4 6/3/3 10/6/6 39/5/5
f 31/49/31 30/50/31 27/51/32 36/52/33
f 64/53/34 65/54/35 8/55/36 23/56/34
f 65/57/35 63/58/37 41/59/38 8/60/36
f 28/61/39 29/62/40 34/63/41 22/64/42
f 25/65/43 66/66/43 67/67/43 20/68/43
f 34/69/44 29/70/44 26/71/45 12/72/46
f 37/31/5 27/73/47 9/74/20 3/32/19
f 36/75/24 34/76/12 12/77/30 13/78/25
f 38/79/5 36/75/48 27/73/47 37/31/5
f 40/80/5 39/5/5 22/8/5 34/76/5
f 22/8/5 17/7/7 68/81/5 67/82/5
f 51/83/49 43/84/49 38/85/49 47/86/49
f 43/13/12 42/1/12 34/76/12 36/75/24
f 48/87/49 52/88/49 33/89/49 39/90/49
f 53/91/5 52/92/5 48/93/5 49/94/5
f 51/95/5 47/96/5 46/97/5 50/98/5
f 52/99/50 53/100/50 42/101/51 33/102/52
f 47/103/53 38/104/53 37/105/53 46/106/53
f 53/107/54 49/108/54 40/109/54 42/110/54
f 50/111/54 46/112/54 37/113/54 44/114/54
f 50/115/55 44/116/55 43/117/55 51/118/55
f 49/119/56 48/120/56 39/121/56 40/122/56
f 27/73/47 19/123/47 70/124/5 9/74/20
f 3/125/19 9/33/20 7/36/23 16/126/49
f 10/127/6 1/128/57 56/129/54 17/130/7
f 55/131/58 3/125/19 16/126/49 61/132/58
f 63/133/37 62/134/41 59/135/41 41/136/38
f 4/137/59 15/138/60 14/139/61 6/140/62
f 6/141/62 14/142/61 1/128/57 10/127/6
f 45/143/17 55/144/58 61/145/58 60/146/17
f 17/130/7 56/129/54 69/147/63 68/148/63
f 2/44/54 41/43/54 59/149/54 54/150/54
f 32/151/16 2/152/15 54/153/41 58/154/64
f 4/137/65 45/143/17 60/146/17 15/138/65
f 21/155/66 57/156/67 62/134/41 63/133/37
f 20/157/68 21/158/66 63/58/37 65/57/35
f 25/159/34 20/160/68 65/54/35 64/53/34
f 26/10/5 29/161/40 28/162/39 66/163/5
f 64/11/8 26/10/5 66/163/5 25/164/5
f 67/82/5 68/81/5 21/158/66 20/157/68
f 67/67/43 66/66/43 28/165/39 22/166/42
f 68/148/63 69/147/63 57/167/67 21/168/66
f 71/21/10 19/20/10 27/169/69 30/170/69
f 11/9/5 71/18/5 30/171/31 31/172/31
f 70/124/5 19/123/47 18/23/13 32/26/16
f 72/35/22 70/34/21 32/173/16 58/174/64
