# Blender v2.82 (sub 7) OBJ File: ''
# www.blender.org
mtllib BUILD_Farm2.mtl
o Plane.010_Plane.057
v -4.060475 3.073935 6.758323
v -4.060475 -0.152379 6.758323
v 2.270829 -0.152379 6.930050
v 2.270829 3.073935 6.930050
v 2.270829 3.073935 6.758324
v -4.060475 -0.152379 6.930050
v 2.270829 -0.152379 6.758324
v -4.060475 3.073935 6.930050
v -0.756299 4.484985 6.930050
v -0.756299 4.484985 6.758323
v -1.824128 -0.152379 6.930050
v -1.824128 4.028968 6.930050
v -1.824128 -0.152379 6.758323
v -1.824128 4.028968 6.758323
v 0.261769 -0.152379 6.930050
v 0.261769 4.010427 6.930050
v 0.261769 -0.152379 6.758324
v 0.261769 4.010427 6.758324
v -4.060475 2.290401 6.758323
v 2.270829 2.290401 6.930050
v -4.060475 2.290401 6.930050
v 2.270829 2.290401 6.758324
v -0.756299 3.039892 6.930050
v -0.756299 3.039892 6.758323
v -1.824128 3.013498 6.758323
v -1.824128 3.013498 6.930050
v 0.261769 2.999460 6.930050
v 0.261769 2.999460 6.758324
vt 1.710225 0.633924
vt 1.653119 0.890431
vt 1.456384 0.890431
vt 1.456384 0.633924
vt 1.871193 0.561346
vt 1.871193 0.858157
vt 1.849618 0.858157
vt 1.849618 0.561346
vt 1.299395 0.338589
vt 1.045554 0.338589
vt 1.045554 0.082083
vt 1.242289 0.082083
vt 1.894926 0.878051
vt 1.894926 0.944562
vt 1.873351 0.944562
vt 1.873351 0.878051
vt 1.942392 0.054491
vt 1.942392 0.310996
vt 1.920817 0.310996
vt 1.920817 0.054491
vt 1.873351 0.576794
vt 1.873351 0.369435
vt 1.894926 0.369435
vt 1.894926 0.576794
vt 1.871193 0.305586
vt 1.871193 0.419622
vt 1.849618 0.419622
vt 1.849618 0.305586
vt 1.918659 0.323842
vt 1.897084 0.323842
vt 1.897084 0.055102
vt 1.918659 0.055102
vt 1.653119 0.082083
vt 1.711355 0.367608
vt 1.456384 0.367608
vt 1.456384 0.082083
vt 1.242290 0.890431
vt 1.045554 0.890431
vt 1.045554 0.604905
vt 1.300526 0.604905
vt 1.894926 0.055942
vt 1.894926 0.341466
vt 1.873351 0.341466
vt 1.873351 0.055942
vt 1.871193 0.080546
vt 1.849618 0.080546
vt 1.918659 0.513693
vt 1.897084 0.513693
vt 1.897084 0.377364
vt 1.918659 0.377364
vt 1.918659 0.643683
vt 1.897084 0.643683
vt 1.897084 0.670376
vt 1.918659 0.670376
vt 1.918659 0.937924
vt 1.897084 0.937924
vt 1.829865 0.503943
vt 1.791645 0.633924
vt 1.713481 0.503943
vt 1.419035 0.468571
vt 1.302652 0.468571
vt 1.380816 0.338589
vt 1.305393 0.890431
vt 1.382309 0.604905
vt 1.716222 0.082083
vt 1.793138 0.367608
vt 1.873351 0.643305
vt 1.894926 0.643305
vt 1.894926 0.670692
vt 1.873351 0.670692
vt 1.305393 0.082083
vt 1.716223 0.890431
vn -0.0000 0.0000 -1.0000
vn -0.3927 0.9197 0.0000
vn 0.0000 0.0000 1.0000
vn 1.0000 0.0000 0.0000
vn 0.0000 -1.0000 0.0000
vn -1.0000 -0.0000 0.0000
vn 0.4225 0.9064 0.0000
vn 0.0247 -0.9997 0.0000
vn -0.0397 -0.9992 0.0000
usemtl Door
s 1
f 28/1/1 22/2/1 7/3/1 17/4/1
f 14/5/2 1/6/2 8/7/2 12/8/2
f 27/9/3 15/10/3 3/11/3 20/12/3
f 22/13/4 5/14/4 4/15/4 20/16/4
f 17/17/5 7/18/5 3/19/5 15/20/5
f 19/21/6 2/22/6 6/23/6 21/24/6
f 18/25/7 10/26/7 9/27/7 16/28/7
f 25/29/4 26/30/4 11/31/4 13/32/4
f 19/33/1 25/34/1 13/35/1 2/36/1
f 21/37/3 6/38/3 11/39/3 26/40/3
f 2/41/5 13/42/5 11/43/5 6/44/5
f 10/26/2 14/5/2 12/8/2 9/27/2
f 5/45/7 18/25/7 16/28/7 4/46/7
f 24/47/8 23/48/8 26/49/8 25/50/8
f 28/51/9 27/52/9 23/48/9 24/47/9
f 17/53/6 15/54/6 27/55/6 28/56/6
f 10/57/1 18/58/1 28/1/1 24/59/1
f 9/60/3 23/61/3 27/9/3 16/62/3
f 8/63/3 21/37/3 26/40/3 12/64/3
f 1/65/1 14/66/1 25/34/1 19/33/1
f 14/66/1 10/57/1 24/59/1 25/34/1
f 12/64/3 26/40/3 23/61/3 9/60/3
f 1/67/6 19/21/6 21/24/6 8/68/6
f 7/69/4 22/13/4 20/16/4 3/70/4
f 16/62/3 27/9/3 20/12/3 4/71/3
f 18/58/1 5/72/1 22/2/1 28/1/1
o Plane.015_Plane.058
v 2.685715 -0.276626 6.892241
v 2.685715 3.073935 6.892241
v 2.685715 3.073935 6.583707
v 2.685715 -0.276626 6.583707
v 2.238388 3.073935 6.892241
v 2.238388 -0.276626 6.892241
v 2.441040 3.073935 6.583707
v 2.441040 -0.276626 6.583707
v 2.685715 3.073935 -0.078981
v 2.685715 -0.276626 -0.078981
v 2.441041 3.073935 -0.078981
v 2.441041 -0.276626 -0.078981
vt 2.825183 0.369085
vt 2.630581 0.369085
vt 2.630581 0.384102
vt 2.825183 0.384102
vt 2.577421 0.812241
vt 2.595124 0.812241
vt 2.595124 0.624417
vt 2.577421 0.624417
vt 2.918930 0.742329
vt 2.897555 0.742329
vt 2.879852 0.757347
vt 2.918930 0.757347
vt 2.825183 0.044789
vt 2.630581 0.044789
vt 2.879852 0.384102
vt 2.918930 0.384102
vt 2.901227 0.369085
vt 2.879852 0.369085
vt 2.527559 0.624417
vt 2.488482 0.624417
vt 2.488482 0.812241
vt 2.527559 0.812241
vt 2.551955 0.624417
vt 2.530581 0.624417
vt 2.530581 0.812241
vt 2.551955 0.812241
vt 2.901227 0.044789
vt 2.879852 0.044789
vt 2.918930 0.418034
vt 2.897555 0.418034
vt 2.232635 0.955536
vt 2.232635 0.631240
vt 2.038032 0.631240
vt 2.038032 0.955536
vn 1.0000 0.0000 0.0000
vn -0.8358 0.0000 -0.5490
vn 0.0000 1.0000 -0.0000
vn 0.0000 -1.0000 -0.0000
vn -0.0000 0.0000 1.0000
vn 0.0000 0.0000 -1.0000
vn -1.0000 0.0000 -0.0000
usemtl None
s 1
f 32/73/10 31/74/10 30/75/10 29/76/10
f 36/77/11 34/78/11 33/79/11 35/80/11
f 31/81/12 35/82/12 33/83/12 30/84/12
f 32/73/10 38/85/10 37/86/10 31/74/10
f 29/87/13 34/88/13 36/89/13 32/90/13
f 30/91/14 33/92/14 34/93/14 29/94/14
f 38/95/15 40/96/15 39/97/15 37/98/15
f 36/89/13 40/99/13 38/100/13 32/90/13
f 31/81/12 37/101/12 39/102/12 35/82/12
f 35/103/16 39/104/16 40/105/16 36/106/16
o Plane.016_Plane.059
v -4.012329 -0.276626 6.892241
v -4.012329 3.073935 6.892241
v -4.012329 3.073935 6.583707
v -4.012329 -0.074964 6.583707
v -4.459656 3.073935 6.892241
v -4.459656 -0.276626 6.892241
v -4.257004 3.073935 6.583707
v -4.257004 -0.074964 6.583707
v -4.012329 3.073935 -0.078981
v -4.012329 -0.074964 -0.078981
v -4.257003 3.073935 -0.078981
v -4.257003 -0.074964 -0.078981
vt 2.813471 0.742329
vt 2.630581 0.742329
vt 2.630581 0.757347
vt 2.825183 0.757347
vt 2.614598 0.635721
vt 2.596894 0.624417
vt 2.596894 0.812241
vt 2.614598 0.812241
vt 2.875945 0.742329
vt 2.854570 0.742329
vt 2.836867 0.757347
vt 2.875945 0.757347
vt 2.813471 0.418033
vt 2.630581 0.418034
vt 2.836867 0.384102
vt 2.875945 0.384102
vt 2.858242 0.369085
vt 2.836867 0.369085
vt 2.484574 0.624417
vt 2.445497 0.624417
vt 2.445497 0.812241
vt 2.484574 0.812241
vt 2.554093 0.800371
vt 2.575467 0.800371
vt 2.575467 0.623851
vt 2.554093 0.623851
vt 2.858242 0.044789
vt 2.836867 0.044789
vt 2.875945 0.418033
vt 2.854570 0.418033
vt 2.434399 0.955536
vt 2.434399 0.631240
vt 2.251509 0.631240
vt 2.251509 0.955536
vn 1.0000 0.0000 0.0000
vn -0.8358 0.0000 -0.5490
vn 0.0000 1.0000 -0.0000
vn 0.0000 -0.8371 -0.5471
vn -0.0000 0.0000 1.0000
vn 0.0000 0.0000 -1.0000
vn 0.0000 -1.0000 -0.0000
vn -1.0000 0.0000 -0.0000
usemtl Wall
s 1
f 44/107/17 43/108/17 42/109/17 41/110/17
f 48/111/18 46/112/18 45/113/18 47/114/18
f 43/115/19 47/116/19 45/117/19 42/118/19
f 44/107/17 50/119/17 49/120/17 43/108/17
f 41/121/20 46/122/20 48/123/20 44/124/20
f 42/125/21 45/126/21 46/127/21 41/128/21
f 50/129/22 52/130/22 51/131/22 49/132/22
f 48/123/23 52/133/23 50/134/23 44/124/23
f 43/115/19 49/135/19 51/136/19 47/116/19
f 47/137/24 51/138/24 52/139/24 48/140/24
o Cube.031_Cube.3368
v -4.802407 2.675795 7.417919
v -0.850943 4.478519 7.417918
v 3.106627 2.675795 7.417919
v -4.802407 2.675791 -0.580943
v -0.850942 4.478515 -0.580945
v 3.106627 2.675791 -0.580943
v -4.802407 2.957398 7.417918
v -0.850943 4.760122 7.417918
v 3.106627 2.957398 7.417918
v -4.802407 2.957394 -0.580944
v -0.850942 4.760118 -0.580945
v 3.106627 2.957394 -0.580944
vt 0.141834 0.976279
vt 0.123584 0.976279
vt 0.006754 0.739258
vt 0.025004 0.739258
vt 0.512234 0.456415
vt 0.512234 0.280818
vt 0.957654 0.280818
vt 0.957654 0.456415
vt 0.467691 0.021734
vt 0.467691 0.280819
vt 0.022271 0.280819
vt 0.022271 0.021734
vt 0.980837 0.019785
vt 0.999087 0.019785
vt 0.999088 0.415478
vt 0.980838 0.415478
vt 0.512234 0.021734
vt 0.957654 0.021734
vt 0.290422 0.501870
vt 0.173592 0.738892
vt 0.155342 0.738892
vt 0.272172 0.501870
vt 0.272172 0.976279
vt 0.290422 0.976279
vt 0.999087 0.455047
vt 0.999087 0.850740
vt 0.980837 0.850740
vt 0.980837 0.455047
vt 0.123584 0.501870
vt 0.141834 0.501870
vt 0.467691 0.456415
vt 0.022271 0.456415
vn -0.8086 -0.0000 -0.5883
vn -0.6179 -0.0000 -0.7863
vn -0.0000 -0.0000 -1.0000
vn -0.4151 0.9098 -0.0000
vn -0.0003 1.0000 -0.0000
vn 0.4489 -0.6978 0.5581
vn 0.0003 -1.0000 0.0000
vn 0.4489 -0.6978 -0.5581
vn 0.6708 0.4315 0.6032
vn 0.6708 0.4315 -0.6032
vn -0.8086 0.0000 0.5883
vn 0.0000 0.0000 1.0000
vn -0.6179 0.0000 0.7863
vn 0.4151 -0.9098 0.0000
usemtl Roof
s 1
f 56/141/25 62/142/26 63/143/27 57/144/27
f 59/145/28 60/146/29 63/147/29 62/148/28
f 55/149/30 54/150/31 57/151/31 58/152/32
f 61/153/33 55/154/30 58/155/32 64/156/34
f 63/147/29 60/146/29 61/157/33 64/158/34
f 53/159/35 54/160/36 60/161/36 59/162/37
f 61/163/33 60/161/36 54/160/36 55/164/30
f 56/165/25 53/166/35 59/167/37 62/168/26
f 64/169/34 58/170/32 57/144/27 63/143/27
f 53/171/38 56/172/38 57/151/31 54/150/31
o Cube.034_Cube.3369
v -4.437778 -0.389396 6.989174
v 2.745685 -0.389396 6.989174
v -4.437778 -0.389400 -0.016867
v 2.745686 -0.389400 -0.016867
v -4.437778 -0.107793 6.989174
v 2.745685 -0.107793 6.989174
v -4.437778 -0.107797 -0.016867
v 2.745685 -0.107797 -0.016867
vt 3.913963 0.587590
vt 3.913963 0.057472
vt 3.932601 0.057472
vt 3.932601 0.587590
vt 3.893461 0.057472
vt 3.912099 0.057472
vt 3.912099 0.587590
vt 3.893461 0.587590
vt 3.035890 0.587590
vt 3.035890 0.057472
vt 3.434326 0.057472
vt 3.434326 0.587590
vt 3.934465 0.521320
vt 3.953103 0.521320
vt 3.953103 0.947714
vt 3.934465 0.947714
vt 3.934465 0.478680
vt 3.934465 0.052286
vt 3.953103 0.052286
vt 3.953103 0.478680
vt 3.474170 0.057472
vt 3.872607 0.057472
vt 3.872607 0.587590
vt 3.474170 0.587590
vn 0.5774 0.5774 0.5774
vn -0.7071 0.0000 0.7071
vn 0.5774 -0.5773 0.5774
vn 0.5773 0.5774 -0.5774
vn 0.5774 -0.5774 -0.5773
vn -0.7071 0.0000 -0.7071
vn 0.0000 1.0000 -0.0000
vn 0.0000 -1.0000 0.0000
usemtl Floor
s 1
f 70/173/39 69/174/40 65/175/40 66/176/41
f 72/177/42 68/178/43 67/179/44 71/180/44
f 69/181/45 70/182/39 72/183/42 71/184/45
f 70/185/39 66/186/41 68/187/43 72/188/42
f 67/189/44 65/190/40 69/191/40 71/192/44
f 65/193/46 67/194/46 68/195/43 66/196/41
o Plane.017_Plane.060
v -4.060475 3.073935 -0.056755
v -4.060475 -0.152379 -0.056755
v 2.270829 -0.152379 0.114972
v 2.270829 3.073935 0.114972
v 2.270829 3.073935 -0.056755
v -4.060475 -0.152379 0.114971
v 2.270829 -0.152379 -0.056755
v -4.060475 3.073935 0.114971
v -0.756298 -0.152379 0.114972
v -0.756299 4.484985 0.114972
v -0.756298 -0.152379 -0.056755
v -0.756299 4.484985 -0.056755
vt 2.311110 0.333104
vt 2.229155 0.588334
vt 2.041769 0.588334
vt 2.041769 0.333104
vt 2.954336 0.277420
vt 2.954336 0.567021
vt 2.938777 0.567021
vt 2.938777 0.277420
vt 2.607384 0.309745
vt 2.338044 0.309745
vt 2.338044 0.054514
vt 2.525429 0.054514
vt 2.971451 0.036866
vt 2.971451 0.217726
vt 2.955892 0.217726
vt 2.955892 0.036866
vt 2.937221 0.333104
vt 2.937221 0.588334
vt 2.921661 0.588334
vt 2.921661 0.333104
vt 2.921661 0.804927
vt 2.921661 0.624068
vt 2.937221 0.624068
vt 2.937221 0.804927
vt 2.937221 0.054514
vt 2.921661 0.054514
vt 2.525429 0.588334
vt 2.338044 0.588334
vt 2.954336 0.053499
vt 2.938777 0.053499
vt 2.229155 0.054514
vt 2.041769 0.054514
vn 0.0000 0.0000 -1.0000
vn -0.3927 0.9197 0.0000
vn -0.0000 -0.0000 1.0000
vn 1.0000 0.0000 0.0000
vn 0.0000 -1.0000 0.0000
vn -1.0000 -0.0000 0.0000
vn 0.4225 0.9064 0.0000
usemtl Wall
s 1
f 84/197/47 77/198/47 79/199/47 83/200/47
f 84/201/48 73/202/48 80/203/48 82/204/48
f 82/205/49 81/206/49 75/207/49 76/208/49
f 79/209/50 77/210/50 76/211/50 75/212/50
f 83/213/51 79/214/51 75/215/51 81/216/51
f 73/217/52 74/218/52 78/219/52 80/220/52
f 74/221/51 83/213/51 81/216/51 78/222/51
f 80/223/49 78/224/49 81/206/49 82/205/49
f 77/225/53 84/201/53 82/204/53 76/226/53
f 73/227/47 84/197/47 83/200/47 74/228/47
